<?xml version="1.0" encoding="utf-8"?>
<!-- Generator: Adobe Illustrator 27.5.0, SVG Export Plug-In . SVG Version: 6.00 Build 0)  -->
<svg version="1.1" id="Layer_1" xmlns="http://www.w3.org/2000/svg" xmlns:xlink="http://www.w3.org/1999/xlink" x="0px" y="0px"
	 viewBox="0 0 256 256" style="enable-background:new 0 0 256 256;" xml:space="preserve">
<style type="text/css">
	.st0{fill:#C2E7F2;}
	.st1{fill:url(#SVGID_1_);}
	.st2{fill:#231F20;}
</style>
<g id="back">
	<path class="st0" d="M194.9,256H61.1C27.5,256,0,228.5,0,194.9V61.1C0,27.5,27.5,0,61.1,0h133.8C228.5,0,256,27.5,256,61.1v133.8
		C256,228.5,228.5,256,194.9,256z"/>
	<linearGradient id="SVGID_1_" gradientUnits="userSpaceOnUse" x1="128" y1="256" x2="128" y2="-9.094947e-13">
		<stop  offset="8.973817e-04" style="stop-color:#2174BA"/>
		<stop  offset="0.9997" style="stop-color:#00BAED"/>
	</linearGradient>
	<path class="st1" d="M194.9,26c9.3,0,18.1,3.7,24.8,10.3C226.3,43,230,51.8,230,61.1v133.8c0,9.3-3.7,18.1-10.3,24.8
		c-6.7,6.7-15.5,10.3-24.8,10.3H61.1c-9.3,0-18.1-3.7-24.8-10.3C29.7,213,26,204.2,26,194.9V61.1c0-9.3,3.7-18.1,10.3-24.8
		C43,29.7,51.8,26,61.1,26H194.9 M194.9,0H61.1C27.5,0,0,27.5,0,61.1v133.8C0,228.5,27.5,256,61.1,256h133.8
		c33.6,0,61.1-27.5,61.1-61.1V61.1C256,27.5,228.5,0,194.9,0L194.9,0z"/>
</g>
<g>
	<path class="st2" d="M198,56v48.5c0,49.7-18.7,76.5-56,80.1v-16.7c14.6-3.9,22-21.1,22-51.4V112h-22V56H198z"/>
</g>
</svg>
