<?xml version="1.0" encoding="UTF-8"?>
<svg id="Layer_2" data-name="Layer 2" xmlns="http://www.w3.org/2000/svg" viewBox="0 0 860 290">
  <defs>
    <style>
      .cls-1 {
        fill: #fff;
      }

      .cls-2 {
        fill: #39c;
      }

      .cls-3 {
        fill: #393;
      }

      .cls-4 {
        fill: #2ab0c6;
      }

      .cls-5 {
        fill: #ccc;
      }

      .cls-6 {
        fill: #666;
      }
    </style>
  </defs>
  <g id="keys">
    <g>
      <path class="cls-1" d="m289.5,41.5c0,6.52-1.5,8-8,8h-33c-6.5,0-8-1.5-8-8V8.5c0-6.5,1.5-8,8-8h33c6.5,0,8,1.5,8,8v33Z"/>
      <path class="cls-5" d="m281.5,50h-33c-6.75,0-8.5-1.75-8.5-8.5V8.5c0-6.75,1.75-8.5,8.5-8.5h33c6.75,0,8.5,1.75,8.5,8.5v33c0,6.75-1.75,8.5-8.5,8.5ZM248.5,1c-6.24,0-7.5,1.26-7.5,7.5v33c0,6.24,1.26,7.5,7.5,7.5h33c6.24,0,7.5-1.26,7.5-7.5V8.5c0-6.24-1.26-7.5-7.5-7.5h-33Z"/>
    </g>
    <g>
      <path class="cls-1" d="m349.5,41.5c0,6.52-1.5,8-8,8h-33c-6.5,0-8-1.5-8-8V8.5c0-6.5,1.5-8,8-8h33c6.5,0,8,1.5,8,8v33Z"/>
      <path class="cls-5" d="m341.5,50h-33c-6.75,0-8.5-1.75-8.5-8.5V8.5c0-6.75,1.75-8.5,8.5-8.5h33c6.75,0,8.5,1.75,8.5,8.5v33c0,6.75-1.75,8.5-8.5,8.5ZM308.5,1c-6.24,0-7.5,1.26-7.5,7.5v33c0,6.24,1.26,7.5,7.5,7.5h33c6.24,0,7.5-1.26,7.5-7.5V8.5c0-6.24-1.26-7.5-7.5-7.5h-33Z"/>
    </g>
    <g>
      <path class="cls-1" d="m409.5,41.5c0,6.52-1.5,8-8,8h-33c-6.5,0-8-1.5-8-8V8.5c0-6.5,1.5-8,8-8h33c6.5,0,8,1.5,8,8v33Z"/>
      <path class="cls-5" d="m401.5,50h-33c-6.75,0-8.5-1.75-8.5-8.5V8.5c0-6.75,1.75-8.5,8.5-8.5h33c6.75,0,8.5,1.75,8.5,8.5v33c0,6.75-1.75,8.5-8.5,8.5ZM368.5,1c-6.24,0-7.5,1.26-7.5,7.5v33c0,6.24,1.26,7.5,7.5,7.5h33c6.24,0,7.5-1.26,7.5-7.5V8.5c0-6.24-1.26-7.5-7.5-7.5h-33Z"/>
    </g>
    <g>
      <path class="cls-1" d="m469.5,41.5c0,6.52-1.5,8-8,8h-33c-6.5,0-8-1.5-8-8V8.5c0-6.5,1.5-8,8-8h33c6.5,0,8,1.5,8,8v33Z"/>
      <path class="cls-5" d="m461.5,50h-33c-6.75,0-8.5-1.75-8.5-8.5V8.5c0-6.75,1.75-8.5,8.5-8.5h33c6.75,0,8.5,1.75,8.5,8.5v33c0,6.75-1.75,8.5-8.5,8.5ZM428.5,1c-6.24,0-7.5,1.26-7.5,7.5v33c0,6.24,1.26,7.5,7.5,7.5h33c6.24,0,7.5-1.26,7.5-7.5V8.5c0-6.24-1.26-7.5-7.5-7.5h-33Z"/>
    </g>
    <g>
      <path class="cls-1" d="m49.5,41.5c0,6.52-1.5,8-8,8H8.5c-6.5,0-8-1.5-8-8V8.5C.5,2,2,.5,8.5.5h33c6.5,0,8,1.5,8,8v33Z"/>
      <path class="cls-5" d="m41.5,50H8.5c-6.75,0-8.5-1.75-8.5-8.5V8.5C0,1.75,1.75,0,8.5,0h33c6.75,0,8.5,1.75,8.5,8.5v33c0,6.75-1.75,8.5-8.5,8.5ZM8.5,1C2.26,1,1,2.26,1,8.5v33c0,6.24,1.26,7.5,7.5,7.5h33c6.24,0,7.5-1.26,7.5-7.5V8.5c0-6.24-1.26-7.5-7.5-7.5H8.5Z"/>
    </g>
    <g>
      <path class="cls-1" d="m79.5,101.5c0,6.52-1.5,8-8,8H8.5c-6.5,0-8-1.5-8-8v-33c0-6.5,1.5-8,8-8h63c6.5,0,8,1.5,8,8v33Z"/>
      <path class="cls-5" d="m71.5,110H8.5c-6.75,0-8.5-1.75-8.5-8.5v-33c0-6.75,1.75-8.5,8.5-8.5h63c6.75,0,8.5,1.75,8.5,8.5v33c0,6.75-1.75,8.5-8.5,8.5ZM8.5,61c-6.24,0-7.5,1.26-7.5,7.5v33c0,6.24,1.26,7.5,7.5,7.5h63c6.24,0,7.5-1.26,7.5-7.5v-33c0-6.24-1.26-7.5-7.5-7.5H8.5Z"/>
    </g>
    <g>
      <path class="cls-1" d="m79.5,281.5c0,6.52-1.5,8-8,8H8.5c-6.5,0-8-1.5-8-8v-33c0-6.5,1.5-8,8-8h63c6.5,0,8,1.5,8,8v33Z"/>
      <path class="cls-5" d="m71.5,290H8.5c-6.75,0-8.5-1.75-8.5-8.5v-33c0-6.75,1.75-8.5,8.5-8.5h63c6.75,0,8.5,1.75,8.5,8.5v33c0,6.75-1.75,8.5-8.5,8.5Zm-63-49c-6.24,0-7.5,1.26-7.5,7.5v33c0,6.24,1.26,7.5,7.5,7.5h63c6.24,0,7.5-1.26,7.5-7.5v-33c0-6.24-1.26-7.5-7.5-7.5H8.5Z"/>
    </g>
    <g>
      <path class="cls-1" d="m249.5,281.5c0,6.52-1.5,8-8,8h-63c-6.5,0-8-1.5-8-8v-33c0-6.5,1.5-8,8-8h63c6.5,0,8,1.5,8,8v33Z"/>
      <path class="cls-5" d="m241.5,290h-63c-6.75,0-8.5-1.75-8.5-8.5v-33c0-6.75,1.75-8.5,8.5-8.5h63c6.75,0,8.5,1.75,8.5,8.5v33c0,6.75-1.75,8.5-8.5,8.5Zm-63-49c-6.24,0-7.5,1.26-7.5,7.5v33c0,6.24,1.26,7.5,7.5,7.5h63c6.24,0,7.5-1.26,7.5-7.5v-33c0-6.24-1.26-7.5-7.5-7.5h-63Z"/>
    </g>
    <g>
      <path class="cls-1" d="m159.5,281.5c0,6.52-1.5,8-8,8h-53c-6.5,0-8-1.5-8-8v-33c0-6.5,1.5-8,8-8h53c6.5,0,8,1.5,8,8v33Z"/>
      <path class="cls-5" d="m151.5,290h-53c-6.75,0-8.5-1.75-8.5-8.5v-33c0-6.75,1.75-8.5,8.5-8.5h53c6.75,0,8.5,1.75,8.5,8.5v33c0,6.75-1.75,8.5-8.5,8.5Zm-53-49c-6.24,0-7.5,1.26-7.5,7.5v33c0,6.24,1.26,7.5,7.5,7.5h53c6.24,0,7.5-1.26,7.5-7.5v-33c0-6.24-1.26-7.5-7.5-7.5h-53Z"/>
    </g>
    <g>
      <path class="cls-1" d="m699.5,281.5c0,6.52-1.5,8-8,8h-63c-6.5,0-8-1.5-8-8v-33c0-6.5,1.5-8,8-8h63c6.5,0,8,1.5,8,8v33Z"/>
      <path class="cls-3" d="m691.5,290h-63c-6.75,0-8.5-1.75-8.5-8.5v-33c0-6.75,1.75-8.5,8.5-8.5h63c6.75,0,8.5,1.75,8.5,8.5v33c0,6.75-1.75,8.5-8.5,8.5Zm-63-49c-6.24,0-7.5,1.26-7.5,7.5v33c0,6.24,1.26,7.5,7.5,7.5h63c6.24,0,7.5-1.26,7.5-7.5v-33c0-6.24-1.26-7.5-7.5-7.5h-63Z"/>
    </g>
    <g>
      <path class="cls-1" d="m859.5,281.5c0,6.52-1.5,8-8,8h-53c-6.5,0-8-1.5-8-8v-33c0-6.5,1.5-8,8-8h53c6.5,0,8,1.5,8,8v33Z"/>
      <path class="cls-5" d="m851.5,290h-53c-6.75,0-8.5-1.75-8.5-8.5v-33c0-6.75,1.75-8.5,8.5-8.5h53c6.75,0,8.5,1.75,8.5,8.5v33c0,6.75-1.75,8.5-8.5,8.5Zm-53-49c-6.24,0-7.5,1.26-7.5,7.5v33c0,6.24,1.26,7.5,7.5,7.5h53c6.24,0,7.5-1.26,7.5-7.5v-33c0-6.24-1.26-7.5-7.5-7.5h-53Z"/>
    </g>
    <g>
      <path class="cls-1" d="m779.5,281.5c0,6.52-1.5,8-8,8h-53c-6.5,0-8-1.5-8-8v-33c0-6.5,1.5-8,8-8h53c6.5,0,8,1.5,8,8v33Z"/>
      <path class="cls-5" d="m771.5,290h-53c-6.75,0-8.5-1.75-8.5-8.5v-33c0-6.75,1.75-8.5,8.5-8.5h53c6.75,0,8.5,1.75,8.5,8.5v33c0,6.75-1.75,8.5-8.5,8.5Zm-53-49c-6.24,0-7.5,1.26-7.5,7.5v33c0,6.24,1.26,7.5,7.5,7.5h53c6.24,0,7.5-1.26,7.5-7.5v-33c0-6.24-1.26-7.5-7.5-7.5h-53Z"/>
    </g>
    <g id="left_shift" data-name="left shift">
      <path class="cls-1" d="m69.5,221.5c0,6.52-1.5,8-8,8H8.5c-6.5,0-8-1.5-8-8v-33c0-6.5,1.5-8,8-8h53c6.5,0,8,1.5,8,8v33Z"/>
      <path class="cls-2" d="m61.5,230H8.5c-6.75,0-8.5-1.75-8.5-8.5v-33c0-6.75,1.75-8.5,8.5-8.5h53c6.75,0,8.5,1.75,8.5,8.5v33c0,6.75-1.75,8.5-8.5,8.5Zm-53-49c-6.24,0-7.5,1.26-7.5,7.5v33c0,6.24,1.26,7.5,7.5,7.5h53c6.24,0,7.5-1.26,7.5-7.5v-33c0-6.24-1.26-7.5-7.5-7.5H8.5Z"/>
    </g>
    <g id="caps_lock" data-name="caps lock">
      <path class="cls-1" d="m94.5,161.5c0,6.52-1.5,8-8,8H8.5c-6.5,0-8-1.5-8-8v-33c0-6.5,1.5-8,8-8h78c6.5,0,8,1.5,8,8v33Z"/>
      <path class="cls-5" d="m86.5,170H8.5c-6.75,0-8.5-1.75-8.5-8.5v-33c0-6.75,1.75-8.5,8.5-8.5h78c6.75,0,8.5,1.75,8.5,8.5v33c0,6.75-1.75,8.5-8.5,8.5ZM8.5,121c-6.24,0-7.5,1.26-7.5,7.5v33c0,6.24,1.26,7.5,7.5,7.5h78c6.24,0,7.5-1.26,7.5-7.5v-33c0-6.24-1.26-7.5-7.5-7.5H8.5Z"/>
    </g>
    <g>
      <path class="cls-1" d="m109.5,41.5c0,6.52-1.5,8-8,8h-33c-6.5,0-8-1.5-8-8V8.5c0-6.5,1.5-8,8-8h33c6.5,0,8,1.5,8,8v33Z"/>
      <path class="cls-5" d="m101.5,50h-33c-6.75,0-8.5-1.75-8.5-8.5V8.5c0-6.75,1.75-8.5,8.5-8.5h33c6.75,0,8.5,1.75,8.5,8.5v33c0,6.75-1.75,8.5-8.5,8.5ZM68.5,1c-6.24,0-7.5,1.26-7.5,7.5v33c0,6.24,1.26,7.5,7.5,7.5h33c6.24,0,7.5-1.26,7.5-7.5V8.5c0-6.24-1.26-7.5-7.5-7.5h-33Z"/>
    </g>
    <g>
      <path class="cls-1" d="m169.5,41.5c0,6.52-1.5,8-8,8h-33c-6.5,0-8-1.5-8-8V8.5c0-6.5,1.5-8,8-8h33c6.5,0,8,1.5,8,8v33Z"/>
      <path class="cls-5" d="m161.5,50h-33c-6.75,0-8.5-1.75-8.5-8.5V8.5c0-6.75,1.75-8.5,8.5-8.5h33c6.75,0,8.5,1.75,8.5,8.5v33c0,6.75-1.75,8.5-8.5,8.5ZM128.5,1c-6.24,0-7.5,1.26-7.5,7.5v33c0,6.24,1.26,7.5,7.5,7.5h33c6.24,0,7.5-1.26,7.5-7.5V8.5c0-6.24-1.26-7.5-7.5-7.5h-33Z"/>
    </g>
    <g>
      <path class="cls-1" d="m229.5,41.5c0,6.52-1.5,8-8,8h-33c-6.5,0-8-1.5-8-8V8.5c0-6.5,1.5-8,8-8h33c6.5,0,8,1.5,8,8v33Z"/>
      <path class="cls-5" d="m221.5,50h-33c-6.75,0-8.5-1.75-8.5-8.5V8.5c0-6.75,1.75-8.5,8.5-8.5h33c6.75,0,8.5,1.75,8.5,8.5v33c0,6.75-1.75,8.5-8.5,8.5ZM188.5,1c-6.24,0-7.5,1.26-7.5,7.5v33c0,6.24,1.26,7.5,7.5,7.5h33c6.24,0,7.5-1.26,7.5-7.5V8.5c0-6.24-1.26-7.5-7.5-7.5h-33Z"/>
    </g>
    <g>
      <path class="cls-1" d="m589.5,41.5c0,6.52-1.5,8-8,8h-33c-6.5,0-8-1.5-8-8V8.5c0-6.5,1.5-8,8-8h33c6.5,0,8,1.5,8,8v33Z"/>
      <path class="cls-5" d="m581.5,50h-33c-6.75,0-8.5-1.75-8.5-8.5V8.5c0-6.75,1.75-8.5,8.5-8.5h33c6.75,0,8.5,1.75,8.5,8.5v33c0,6.75-1.75,8.5-8.5,8.5ZM548.5,1c-6.24,0-7.5,1.26-7.5,7.5v33c0,6.24,1.26,7.5,7.5,7.5h33c6.24,0,7.5-1.26,7.5-7.5V8.5c0-6.24-1.26-7.5-7.5-7.5h-33Z"/>
    </g>
    <g>
      <path class="cls-1" d="m649.5,41.5c0,6.52-1.5,8-8,8h-33c-6.5,0-8-1.5-8-8V8.5c0-6.5,1.5-8,8-8h33c6.5,0,8,1.5,8,8v33Z"/>
      <path class="cls-5" d="m641.5,50h-33c-6.75,0-8.5-1.75-8.5-8.5V8.5c0-6.75,1.75-8.5,8.5-8.5h33c6.75,0,8.5,1.75,8.5,8.5v33c0,6.75-1.75,8.5-8.5,8.5ZM608.5,1c-6.24,0-7.5,1.26-7.5,7.5v33c0,6.24,1.26,7.5,7.5,7.5h33c6.24,0,7.5-1.26,7.5-7.5V8.5c0-6.24-1.26-7.5-7.5-7.5h-33Z"/>
    </g>
    <g>
      <path class="cls-1" d="m709.5,41.5c0,6.52-1.5,8-8,8h-33c-6.5,0-8-1.5-8-8V8.5c0-6.5,1.5-8,8-8h33c6.5,0,8,1.5,8,8v33Z"/>
      <path class="cls-5" d="m701.5,50h-33c-6.75,0-8.5-1.75-8.5-8.5V8.5c0-6.75,1.75-8.5,8.5-8.5h33c6.75,0,8.5,1.75,8.5,8.5v33c0,6.75-1.75,8.5-8.5,8.5ZM668.5,1c-6.24,0-7.5,1.26-7.5,7.5v33c0,6.24,1.26,7.5,7.5,7.5h33c6.24,0,7.5-1.26,7.5-7.5V8.5c0-6.24-1.26-7.5-7.5-7.5h-33Z"/>
    </g>
    <g>
      <path class="cls-1" d="m769.5,41.5c0,6.52-1.5,8-8,8h-33c-6.5,0-8-1.5-8-8V8.5c0-6.5,1.5-8,8-8h33c6.5,0,8,1.5,8,8v33Z"/>
      <path class="cls-5" d="m761.5,50h-33c-6.75,0-8.5-1.75-8.5-8.5V8.5c0-6.75,1.75-8.5,8.5-8.5h33c6.75,0,8.5,1.75,8.5,8.5v33c0,6.75-1.75,8.5-8.5,8.5ZM728.5,1c-6.24,0-7.5,1.26-7.5,7.5v33c0,6.24,1.26,7.5,7.5,7.5h33c6.24,0,7.5-1.26,7.5-7.5V8.5c0-6.24-1.26-7.5-7.5-7.5h-33Z"/>
    </g>
    <g>
      <path class="cls-1" d="m529.5,41.5c0,6.52-1.5,8-8,8h-33c-6.5,0-8-1.5-8-8V8.5c0-6.5,1.5-8,8-8h33c6.5,0,8,1.5,8,8v33Z"/>
      <path class="cls-5" d="m521.5,50h-33c-6.75,0-8.5-1.75-8.5-8.5V8.5c0-6.75,1.75-8.5,8.5-8.5h33c6.75,0,8.5,1.75,8.5,8.5v33c0,6.75-1.75,8.5-8.5,8.5ZM488.5,1c-6.24,0-7.5,1.26-7.5,7.5v33c0,6.24,1.26,7.5,7.5,7.5h33c6.24,0,7.5-1.26,7.5-7.5V8.5c0-6.24-1.26-7.5-7.5-7.5h-33Z"/>
    </g>
    <g>
      <path class="cls-1" d="m379.5,101.5c0,6.52-1.5,8-8,8h-33c-6.5,0-8-1.5-8-8v-33c0-6.5,1.5-8,8-8h33c6.5,0,8,1.5,8,8v33Z"/>
      <path class="cls-5" d="m371.5,110h-33c-6.75,0-8.5-1.75-8.5-8.5v-33c0-6.75,1.75-8.5,8.5-8.5h33c6.75,0,8.5,1.75,8.5,8.5v33c0,6.75-1.75,8.5-8.5,8.5Zm-33-49c-6.24,0-7.5,1.26-7.5,7.5v33c0,6.24,1.26,7.5,7.5,7.5h33c6.24,0,7.5-1.26,7.5-7.5v-33c0-6.24-1.26-7.5-7.5-7.5h-33Z"/>
    </g>
    <g>
      <path class="cls-1" d="m439.5,101.5c0,6.52-1.5,8-8,8h-33c-6.5,0-8-1.5-8-8v-33c0-6.5,1.5-8,8-8h33c6.5,0,8,1.5,8,8v33Z"/>
      <path class="cls-5" d="m431.5,110h-33c-6.75,0-8.5-1.75-8.5-8.5v-33c0-6.75,1.75-8.5,8.5-8.5h33c6.75,0,8.5,1.75,8.5,8.5v33c0,6.75-1.75,8.5-8.5,8.5Zm-33-49c-6.24,0-7.5,1.26-7.5,7.5v33c0,6.24,1.26,7.5,7.5,7.5h33c6.24,0,7.5-1.26,7.5-7.5v-33c0-6.24-1.26-7.5-7.5-7.5h-33Z"/>
    </g>
    <g>
      <path class="cls-1" d="m499.5,101.5c0,6.52-1.5,8-8,8h-33c-6.5,0-8-1.5-8-8v-33c0-6.5,1.5-8,8-8h33c6.5,0,8,1.5,8,8v33Z"/>
      <path class="cls-5" d="m491.5,110h-33c-6.75,0-8.5-1.75-8.5-8.5v-33c0-6.75,1.75-8.5,8.5-8.5h33c6.75,0,8.5,1.75,8.5,8.5v33c0,6.75-1.75,8.5-8.5,8.5Zm-33-49c-6.24,0-7.5,1.26-7.5,7.5v33c0,6.24,1.26,7.5,7.5,7.5h33c6.24,0,7.5-1.26,7.5-7.5v-33c0-6.24-1.26-7.5-7.5-7.5h-33Z"/>
    </g>
    <g>
      <path class="cls-1" d="m559.5,101.5c0,6.52-1.5,8-8,8h-33c-6.5,0-8-1.5-8-8v-33c0-6.5,1.5-8,8-8h33c6.5,0,8,1.5,8,8v33Z"/>
      <path class="cls-5" d="m551.5,110h-33c-6.75,0-8.5-1.75-8.5-8.5v-33c0-6.75,1.75-8.5,8.5-8.5h33c6.75,0,8.5,1.75,8.5,8.5v33c0,6.75-1.75,8.5-8.5,8.5Zm-33-49c-6.24,0-7.5,1.26-7.5,7.5v33c0,6.24,1.26,7.5,7.5,7.5h33c6.24,0,7.5-1.26,7.5-7.5v-33c0-6.24-1.26-7.5-7.5-7.5h-33Z"/>
    </g>
    <g>
      <path class="cls-1" d="m139.5,101.5c0,6.52-1.5,8-8,8h-33c-6.5,0-8-1.5-8-8v-33c0-6.5,1.5-8,8-8h33c6.5,0,8,1.5,8,8v33Z"/>
      <path class="cls-5" d="m131.5,110h-33c-6.75,0-8.5-1.75-8.5-8.5v-33c0-6.75,1.75-8.5,8.5-8.5h33c6.75,0,8.5,1.75,8.5,8.5v33c0,6.75-1.75,8.5-8.5,8.5Zm-33-49c-6.24,0-7.5,1.26-7.5,7.5v33c0,6.24,1.26,7.5,7.5,7.5h33c6.24,0,7.5-1.26,7.5-7.5v-33c0-6.24-1.26-7.5-7.5-7.5h-33Z"/>
    </g>
    <g>
      <path class="cls-1" d="m199.5,101.5c0,6.52-1.5,8-8,8h-33c-6.5,0-8-1.5-8-8v-33c0-6.5,1.5-8,8-8h33c6.5,0,8,1.5,8,8v33Z"/>
      <path class="cls-5" d="m191.5,110h-33c-6.75,0-8.5-1.75-8.5-8.5v-33c0-6.75,1.75-8.5,8.5-8.5h33c6.75,0,8.5,1.75,8.5,8.5v33c0,6.75-1.75,8.5-8.5,8.5Zm-33-49c-6.24,0-7.5,1.26-7.5,7.5v33c0,6.24,1.26,7.5,7.5,7.5h33c6.24,0,7.5-1.26,7.5-7.5v-33c0-6.24-1.26-7.5-7.5-7.5h-33Z"/>
    </g>
    <g>
      <path class="cls-1" d="m259.5,101.5c0,6.52-1.5,8-8,8h-33c-6.5,0-8-1.5-8-8v-33c0-6.5,1.5-8,8-8h33c6.5,0,8,1.5,8,8v33Z"/>
      <path class="cls-5" d="m251.5,110h-33c-6.75,0-8.5-1.75-8.5-8.5v-33c0-6.75,1.75-8.5,8.5-8.5h33c6.75,0,8.5,1.75,8.5,8.5v33c0,6.75-1.75,8.5-8.5,8.5Zm-33-49c-6.24,0-7.5,1.26-7.5,7.5v33c0,6.24,1.26,7.5,7.5,7.5h33c6.24,0,7.5-1.26,7.5-7.5v-33c0-6.24-1.26-7.5-7.5-7.5h-33Z"/>
    </g>
    <g>
      <path class="cls-1" d="m319.5,101.5c0,6.52-1.5,8-8,8h-33c-6.5,0-8-1.5-8-8v-33c0-6.5,1.5-8,8-8h33c6.5,0,8,1.5,8,8v33Z"/>
      <path class="cls-5" d="m311.5,110h-33c-6.75,0-8.5-1.75-8.5-8.5v-33c0-6.75,1.75-8.5,8.5-8.5h33c6.75,0,8.5,1.75,8.5,8.5v33c0,6.75-1.75,8.5-8.5,8.5Zm-33-49c-6.24,0-7.5,1.26-7.5,7.5v33c0,6.24,1.26,7.5,7.5,7.5h33c6.24,0,7.5-1.26,7.5-7.5v-33c0-6.24-1.26-7.5-7.5-7.5h-33Z"/>
    </g>
    <g>
      <path class="cls-1" d="m679.5,101.5c0,6.52-1.5,8-8,8h-33c-6.5,0-8-1.5-8-8v-33c0-6.5,1.5-8,8-8h33c6.5,0,8,1.5,8,8v33Z"/>
      <path class="cls-5" d="m671.5,110h-33c-6.75,0-8.5-1.75-8.5-8.5v-33c0-6.75,1.75-8.5,8.5-8.5h33c6.75,0,8.5,1.75,8.5,8.5v33c0,6.75-1.75,8.5-8.5,8.5Zm-33-49c-6.24,0-7.5,1.26-7.5,7.5v33c0,6.24,1.26,7.5,7.5,7.5h33c6.24,0,7.5-1.26,7.5-7.5v-33c0-6.24-1.26-7.5-7.5-7.5h-33Z"/>
    </g>
    <g>
      <path class="cls-1" d="m739.5,101.5c0,6.52-1.5,8-8,8h-33c-6.5,0-8-1.5-8-8v-33c0-6.5,1.5-8,8-8h33c6.5,0,8,1.5,8,8v33Z"/>
      <path class="cls-5" d="m731.5,110h-33c-6.75,0-8.5-1.75-8.5-8.5v-33c0-6.75,1.75-8.5,8.5-8.5h33c6.75,0,8.5,1.75,8.5,8.5v33c0,6.75-1.75,8.5-8.5,8.5Zm-33-49c-6.24,0-7.5,1.26-7.5,7.5v33c0,6.24,1.26,7.5,7.5,7.5h33c6.24,0,7.5-1.26,7.5-7.5v-33c0-6.24-1.26-7.5-7.5-7.5h-33Z"/>
    </g>
    <g>
      <path class="cls-1" d="m799.5,101.5c0,6.52-1.5,8-8,8h-33c-6.5,0-8-1.5-8-8v-33c0-6.5,1.5-8,8-8h33c6.5,0,8,1.5,8,8v33Z"/>
      <path class="cls-5" d="m791.5,110h-33c-6.75,0-8.5-1.75-8.5-8.5v-33c0-6.75,1.75-8.5,8.5-8.5h33c6.75,0,8.5,1.75,8.5,8.5v33c0,6.75-1.75,8.5-8.5,8.5Zm-33-49c-6.24,0-7.5,1.26-7.5,7.5v33c0,6.24,1.26,7.5,7.5,7.5h33c6.24,0,7.5-1.26,7.5-7.5v-33c0-6.24-1.26-7.5-7.5-7.5h-33Z"/>
    </g>
    <g>
      <path class="cls-1" d="m859.5,41.5c0,6.52-1.5,8-8,8h-63c-6.5,0-8-1.5-8-8V8.5c0-6.5,1.5-8,8-8h63c6.5,0,8,1.5,8,8v33Z"/>
      <path class="cls-5" d="m851.5,50h-63c-6.75,0-8.5-1.75-8.5-8.5V8.5c0-6.75,1.75-8.5,8.5-8.5h63c6.75,0,8.5,1.75,8.5,8.5v33c0,6.75-1.75,8.5-8.5,8.5ZM788.5,1c-6.24,0-7.5,1.26-7.5,7.5v33c0,6.24,1.26,7.5,7.5,7.5h63c6.24,0,7.5-1.26,7.5-7.5V8.5c0-6.24-1.26-7.5-7.5-7.5h-63Z"/>
    </g>
    <g id="right_shift" data-name="right shift">
      <path class="cls-1" d="m859.5,221.5c0,6.52-1.5,8-8,8h-103c-6.5,0-8-1.5-8-8v-33c0-6.5,1.5-8,8-8h103c6.5,0,8,1.5,8,8v33Z"/>
      <path class="cls-2" d="m851.5,230h-103c-6.75,0-8.5-1.75-8.5-8.5v-33c0-6.75,1.75-8.5,8.5-8.5h103c6.75,0,8.5,1.75,8.5,8.5v33c0,6.75-1.75,8.5-8.5,8.5Zm-103-49c-6.24,0-7.5,1.26-7.5,7.5v33c0,6.24,1.26,7.5,7.5,7.5h103c6.24,0,7.5-1.26,7.5-7.5v-33c0-6.24-1.26-7.5-7.5-7.5h-103Z"/>
    </g>
    <g>
      <path class="cls-1" d="m619.5,101.5c0,6.52-1.5,8-8,8h-33c-6.5,0-8-1.5-8-8v-33c0-6.5,1.5-8,8-8h33c6.5,0,8,1.5,8,8v33Z"/>
      <path class="cls-5" d="m611.5,110h-33c-6.75,0-8.5-1.75-8.5-8.5v-33c0-6.75,1.75-8.5,8.5-8.5h33c6.75,0,8.5,1.75,8.5,8.5v33c0,6.75-1.75,8.5-8.5,8.5Zm-33-49c-6.24,0-7.5,1.26-7.5,7.5v33c0,6.24,1.26,7.5,7.5,7.5h33c6.24,0,7.5-1.26,7.5-7.5v-33c0-6.24-1.26-7.5-7.5-7.5h-33Z"/>
    </g>
    <g>
      <path class="cls-1" d="m394.5,161.5c0,6.52-1.5,8-8,8h-33c-6.5,0-8-1.5-8-8v-33c0-6.5,1.5-8,8-8h33c6.5,0,8,1.5,8,8v33Z"/>
      <path class="cls-5" d="m386.5,170h-33c-6.75,0-8.5-1.75-8.5-8.5v-33c0-6.75,1.75-8.5,8.5-8.5h33c6.75,0,8.5,1.75,8.5,8.5v33c0,6.75-1.75,8.5-8.5,8.5Zm-33-49c-6.24,0-7.5,1.26-7.5,7.5v33c0,6.24,1.26,7.5,7.5,7.5h33c6.24,0,7.5-1.26,7.5-7.5v-33c0-6.24-1.26-7.5-7.5-7.5h-33Z"/>
    </g>
    <g>
      <path class="cls-1" d="m454.5,161.5c0,6.52-1.5,8-8,8h-33c-6.5,0-8-1.5-8-8v-33c0-6.5,1.5-8,8-8h33c6.5,0,8,1.5,8,8v33Z"/>
      <path class="cls-5" d="m446.5,170h-33c-6.75,0-8.5-1.75-8.5-8.5v-33c0-6.75,1.75-8.5,8.5-8.5h33c6.75,0,8.5,1.75,8.5,8.5v33c0,6.75-1.75,8.5-8.5,8.5Zm-33-49c-6.24,0-7.5,1.26-7.5,7.5v33c0,6.24,1.26,7.5,7.5,7.5h33c6.24,0,7.5-1.26,7.5-7.5v-33c0-6.24-1.26-7.5-7.5-7.5h-33Z"/>
    </g>
    <g>
      <path class="cls-1" d="m514.5,161.5c0,6.52-1.5,8-8,8h-33c-6.5,0-8-1.5-8-8v-33c0-6.5,1.5-8,8-8h33c6.5,0,8,1.5,8,8v33Z"/>
      <path class="cls-5" d="m506.5,170h-33c-6.75,0-8.5-1.75-8.5-8.5v-33c0-6.75,1.75-8.5,8.5-8.5h33c6.75,0,8.5,1.75,8.5,8.5v33c0,6.75-1.75,8.5-8.5,8.5Zm-33-49c-6.24,0-7.5,1.26-7.5,7.5v33c0,6.24,1.26,7.5,7.5,7.5h33c6.24,0,7.5-1.26,7.5-7.5v-33c0-6.24-1.26-7.5-7.5-7.5h-33Z"/>
    </g>
    <g>
      <path class="cls-1" d="m574.5,161.5c0,6.52-1.5,8-8,8h-33c-6.5,0-8-1.5-8-8v-33c0-6.5,1.5-8,8-8h33c6.5,0,8,1.5,8,8v33Z"/>
      <path class="cls-5" d="m566.5,170h-33c-6.75,0-8.5-1.75-8.5-8.5v-33c0-6.75,1.75-8.5,8.5-8.5h33c6.75,0,8.5,1.75,8.5,8.5v33c0,6.75-1.75,8.5-8.5,8.5Zm-33-49c-6.24,0-7.5,1.26-7.5,7.5v33c0,6.24,1.26,7.5,7.5,7.5h33c6.24,0,7.5-1.26,7.5-7.5v-33c0-6.24-1.26-7.5-7.5-7.5h-33Z"/>
    </g>
    <g>
      <path class="cls-1" d="m154.5,161.5c0,6.52-1.5,8-8,8h-33c-6.5,0-8-1.5-8-8v-33c0-6.5,1.5-8,8-8h33c6.5,0,8,1.5,8,8v33Z"/>
      <path class="cls-5" d="m146.5,170h-33c-6.75,0-8.5-1.75-8.5-8.5v-33c0-6.75,1.75-8.5,8.5-8.5h33c6.75,0,8.5,1.75,8.5,8.5v33c0,6.75-1.75,8.5-8.5,8.5Zm-33-49c-6.24,0-7.5,1.26-7.5,7.5v33c0,6.24,1.26,7.5,7.5,7.5h33c6.24,0,7.5-1.26,7.5-7.5v-33c0-6.24-1.26-7.5-7.5-7.5h-33Z"/>
    </g>
    <g>
      <path class="cls-1" d="m214.5,161.5c0,6.52-1.5,8-8,8h-33c-6.5,0-8-1.5-8-8v-33c0-6.5,1.5-8,8-8h33c6.5,0,8,1.5,8,8v33Z"/>
      <path class="cls-5" d="m206.5,170h-33c-6.75,0-8.5-1.75-8.5-8.5v-33c0-6.75,1.75-8.5,8.5-8.5h33c6.75,0,8.5,1.75,8.5,8.5v33c0,6.75-1.75,8.5-8.5,8.5Zm-33-49c-6.24,0-7.5,1.26-7.5,7.5v33c0,6.24,1.26,7.5,7.5,7.5h33c6.24,0,7.5-1.26,7.5-7.5v-33c0-6.24-1.26-7.5-7.5-7.5h-33Z"/>
    </g>
    <g>
      <path class="cls-1" d="m274.5,161.5c0,6.52-1.5,8-8,8h-33c-6.5,0-8-1.5-8-8v-33c0-6.5,1.5-8,8-8h33c6.5,0,8,1.5,8,8v33Z"/>
      <path class="cls-5" d="m266.5,170h-33c-6.75,0-8.5-1.75-8.5-8.5v-33c0-6.75,1.75-8.5,8.5-8.5h33c6.75,0,8.5,1.75,8.5,8.5v33c0,6.75-1.75,8.5-8.5,8.5Zm-33-49c-6.24,0-7.5,1.26-7.5,7.5v33c0,6.24,1.26,7.5,7.5,7.5h33c6.24,0,7.5-1.26,7.5-7.5v-33c0-6.24-1.26-7.5-7.5-7.5h-33Z"/>
    </g>
    <g>
      <path class="cls-1" d="m334.5,161.5c0,6.52-1.5,8-8,8h-33c-6.5,0-8-1.5-8-8v-33c0-6.5,1.5-8,8-8h33c6.5,0,8,1.5,8,8v33Z"/>
      <path class="cls-5" d="m326.5,170h-33c-6.75,0-8.5-1.75-8.5-8.5v-33c0-6.75,1.75-8.5,8.5-8.5h33c6.75,0,8.5,1.75,8.5,8.5v33c0,6.75-1.75,8.5-8.5,8.5Zm-33-49c-6.24,0-7.5,1.26-7.5,7.5v33c0,6.24,1.26,7.5,7.5,7.5h33c6.24,0,7.5-1.26,7.5-7.5v-33c0-6.24-1.26-7.5-7.5-7.5h-33Z"/>
    </g>
    <g>
      <path class="cls-1" d="m694.5,161.5c0,6.52-1.5,8-8,8h-33c-6.5,0-8-1.5-8-8v-33c0-6.5,1.5-8,8-8h33c6.5,0,8,1.5,8,8v33Z"/>
      <path class="cls-5" d="m686.5,170h-33c-6.75,0-8.5-1.75-8.5-8.5v-33c0-6.75,1.75-8.5,8.5-8.5h33c6.75,0,8.5,1.75,8.5,8.5v33c0,6.75-1.75,8.5-8.5,8.5Zm-33-49c-6.24,0-7.5,1.26-7.5,7.5v33c0,6.24,1.26,7.5,7.5,7.5h33c6.24,0,7.5-1.26,7.5-7.5v-33c0-6.24-1.26-7.5-7.5-7.5h-33Z"/>
    </g>
    <g>
      <path class="cls-1" d="m754.5,161.5c0,6.52-1.5,8-8,8h-33c-6.5,0-8-1.5-8-8v-33c0-6.5,1.5-8,8-8h33c6.5,0,8,1.5,8,8v33Z"/>
      <path class="cls-5" d="m746.5,170h-33c-6.75,0-8.5-1.75-8.5-8.5v-33c0-6.75,1.75-8.5,8.5-8.5h33c6.75,0,8.5,1.75,8.5,8.5v33c0,6.75-1.75,8.5-8.5,8.5Zm-33-49c-6.24,0-7.5,1.26-7.5,7.5v33c0,6.24,1.26,7.5,7.5,7.5h33c6.24,0,7.5-1.26,7.5-7.5v-33c0-6.24-1.26-7.5-7.5-7.5h-33Z"/>
    </g>
    <g>
      <path class="cls-1" d="m814.5,161.5c0,6.52-1.5,8-8,8h-33c-6.5,0-8-1.5-8-8v-33c0-6.5,1.5-8,8-8h33c6.5,0,8,1.5,8,8v33Z"/>
      <path class="cls-5" d="m806.5,170h-33c-6.75,0-8.5-1.75-8.5-8.5v-33c0-6.75,1.75-8.5,8.5-8.5h33c6.75,0,8.5,1.75,8.5,8.5v33c0,6.75-1.75,8.5-8.5,8.5Zm-33-49c-6.24,0-7.5,1.26-7.5,7.5v33c0,6.24,1.26,7.5,7.5,7.5h33c6.24,0,7.5-1.26,7.5-7.5v-33c0-6.24-1.26-7.5-7.5-7.5h-33Z"/>
    </g>
    <g>
      <path class="cls-1" d="m851.5,60.5h-33c-6.5,0-8,1.5-8,8v33c0,6.5,1.5,8,8,8h-1c6.5,0,8,1.5,8,8v44c0,6.5,1.5,8,8,8h18c6.5,0,8-1.48,8-8v-93c0-6.5-1.5-8-8-8Z"/>
      <path class="cls-5" d="m851.5,170h-18c-6.75,0-8.5-1.75-8.5-8.5v-44c0-6.24-1.26-7.5-7.5-7.5h0c-5.93-.19-7.5-2.09-7.5-8.5v-33c0-6.75,1.75-8.5,8.5-8.5h33c6.75,0,8.5,1.75,8.5,8.5v93c0,6.75-1.75,8.5-8.5,8.5Zm-33-60.99c5.93.18,7.5,2.08,7.5,8.49v44c0,6.24,1.26,7.5,7.5,7.5h18c6.24,0,7.5-1.26,7.5-7.5v-93c0-6.24-1.26-7.5-7.5-7.5h-33c-6.24,0-7.5,1.26-7.5,7.5v33c0,6.24,1.26,7.5,7.5,7.5h0Z"/>
    </g>
    <g>
      <path class="cls-1" d="m634.5,161.5c0,6.52-1.5,8-8,8h-33c-6.5,0-8-1.5-8-8v-33c0-6.5,1.5-8,8-8h33c6.5,0,8,1.5,8,8v33Z"/>
      <path class="cls-5" d="m626.5,170h-33c-6.75,0-8.5-1.75-8.5-8.5v-33c0-6.75,1.75-8.5,8.5-8.5h33c6.75,0,8.5,1.75,8.5,8.5v33c0,6.75-1.75,8.5-8.5,8.5Zm-33-49c-6.24,0-7.5,1.26-7.5,7.5v33c0,6.24,1.26,7.5,7.5,7.5h33c6.24,0,7.5-1.26,7.5-7.5v-33c0-6.24-1.26-7.5-7.5-7.5h-33Z"/>
    </g>
    <g>
      <path class="cls-1" d="m369.5,221.5c0,6.52-1.5,8-8,8h-33c-6.5,0-8-1.5-8-8v-33c0-6.5,1.5-8,8-8h33c6.5,0,8,1.5,8,8v33Z"/>
      <path class="cls-5" d="m361.5,230h-33c-6.75,0-8.5-1.75-8.5-8.5v-33c0-6.75,1.75-8.5,8.5-8.5h33c6.75,0,8.5,1.75,8.5,8.5v33c0,6.75-1.75,8.5-8.5,8.5Zm-33-49c-6.24,0-7.5,1.26-7.5,7.5v33c0,6.24,1.26,7.5,7.5,7.5h33c6.24,0,7.5-1.26,7.5-7.5v-33c0-6.24-1.26-7.5-7.5-7.5h-33Z"/>
    </g>
    <g>
      <path class="cls-1" d="m429.5,221.5c0,6.52-1.5,8-8,8h-33c-6.5,0-8-1.5-8-8v-33c0-6.5,1.5-8,8-8h33c6.5,0,8,1.5,8,8v33Z"/>
      <path class="cls-5" d="m421.5,230h-33c-6.75,0-8.5-1.75-8.5-8.5v-33c0-6.75,1.75-8.5,8.5-8.5h33c6.75,0,8.5,1.75,8.5,8.5v33c0,6.75-1.75,8.5-8.5,8.5Zm-33-49c-6.24,0-7.5,1.26-7.5,7.5v33c0,6.24,1.26,7.5,7.5,7.5h33c6.24,0,7.5-1.26,7.5-7.5v-33c0-6.24-1.26-7.5-7.5-7.5h-33Z"/>
    </g>
    <g>
      <path class="cls-1" d="m489.5,221.5c0,6.52-1.5,8-8,8h-33c-6.5,0-8-1.5-8-8v-33c0-6.5,1.5-8,8-8h33c6.5,0,8,1.5,8,8v33Z"/>
      <path class="cls-5" d="m481.5,230h-33c-6.75,0-8.5-1.75-8.5-8.5v-33c0-6.75,1.75-8.5,8.5-8.5h33c6.75,0,8.5,1.75,8.5,8.5v33c0,6.75-1.75,8.5-8.5,8.5Zm-33-49c-6.24,0-7.5,1.26-7.5,7.5v33c0,6.24,1.26,7.5,7.5,7.5h33c6.24,0,7.5-1.26,7.5-7.5v-33c0-6.24-1.26-7.5-7.5-7.5h-33Z"/>
    </g>
    <g>
      <path class="cls-1" d="m549.5,221.5c0,6.52-1.5,8-8,8h-33c-6.5,0-8-1.5-8-8v-33c0-6.5,1.5-8,8-8h33c6.5,0,8,1.5,8,8v33Z"/>
      <path class="cls-5" d="m541.5,230h-33c-6.75,0-8.5-1.75-8.5-8.5v-33c0-6.75,1.75-8.5,8.5-8.5h33c6.75,0,8.5,1.75,8.5,8.5v33c0,6.75-1.75,8.5-8.5,8.5Zm-33-49c-6.24,0-7.5,1.26-7.5,7.5v33c0,6.24,1.26,7.5,7.5,7.5h33c6.24,0,7.5-1.26,7.5-7.5v-33c0-6.24-1.26-7.5-7.5-7.5h-33Z"/>
    </g>
    <g>
      <path class="cls-1" d="m129.5,221.5c0,6.52-1.5,8-8,8h-33c-6.5,0-8-1.5-8-8v-33c0-6.5,1.5-8,8-8h33c6.5,0,8,1.5,8,8v33Z"/>
      <path class="cls-5" d="m121.5,230h-33c-6.75,0-8.5-1.75-8.5-8.5v-33c0-6.75,1.75-8.5,8.5-8.5h33c6.75,0,8.5,1.75,8.5,8.5v33c0,6.75-1.75,8.5-8.5,8.5Zm-33-49c-6.24,0-7.5,1.26-7.5,7.5v33c0,6.24,1.26,7.5,7.5,7.5h33c6.24,0,7.5-1.26,7.5-7.5v-33c0-6.24-1.26-7.5-7.5-7.5h-33Z"/>
    </g>
    <g>
      <path class="cls-1" d="m189.5,221.5c0,6.52-1.5,8-8,8h-33c-6.5,0-8-1.5-8-8v-33c0-6.5,1.5-8,8-8h33c6.5,0,8,1.5,8,8v33Z"/>
      <path class="cls-5" d="m181.5,230h-33c-6.75,0-8.5-1.75-8.5-8.5v-33c0-6.75,1.75-8.5,8.5-8.5h33c6.75,0,8.5,1.75,8.5,8.5v33c0,6.75-1.75,8.5-8.5,8.5Zm-33-49c-6.24,0-7.5,1.26-7.5,7.5v33c0,6.24,1.26,7.5,7.5,7.5h33c6.24,0,7.5-1.26,7.5-7.5v-33c0-6.24-1.26-7.5-7.5-7.5h-33Z"/>
    </g>
    <g>
      <path class="cls-1" d="m249.5,221.5c0,6.52-1.5,8-8,8h-33c-6.5,0-8-1.5-8-8v-33c0-6.5,1.5-8,8-8h33c6.5,0,8,1.5,8,8v33Z"/>
      <path class="cls-5" d="m241.5,230h-33c-6.75,0-8.5-1.75-8.5-8.5v-33c0-6.75,1.75-8.5,8.5-8.5h33c6.75,0,8.5,1.75,8.5,8.5v33c0,6.75-1.75,8.5-8.5,8.5Zm-33-49c-6.24,0-7.5,1.26-7.5,7.5v33c0,6.24,1.26,7.5,7.5,7.5h33c6.24,0,7.5-1.26,7.5-7.5v-33c0-6.24-1.26-7.5-7.5-7.5h-33Z"/>
    </g>
    <g>
      <path class="cls-1" d="m309.5,221.5c0,6.52-1.5,8-8,8h-33c-6.5,0-8-1.5-8-8v-33c0-6.5,1.5-8,8-8h33c6.5,0,8,1.5,8,8v33Z"/>
      <path class="cls-5" d="m301.5,230h-33c-6.75,0-8.5-1.75-8.5-8.5v-33c0-6.75,1.75-8.5,8.5-8.5h33c6.75,0,8.5,1.75,8.5,8.5v33c0,6.75-1.75,8.5-8.5,8.5Zm-33-49c-6.24,0-7.5,1.26-7.5,7.5v33c0,6.24,1.26,7.5,7.5,7.5h33c6.24,0,7.5-1.26,7.5-7.5v-33c0-6.24-1.26-7.5-7.5-7.5h-33Z"/>
    </g>
    <g>
      <path class="cls-1" d="m609.5,281.5c0,6.52-1.5,8-8,8h-333c-6.5,0-8-1.5-8-8v-33c0-6.5,1.5-8,8-8h333c6.5,0,8,1.5,8,8v33Z"/>
      <path class="cls-5" d="m601.5,290h-333c-6.75,0-8.5-1.75-8.5-8.5v-33c0-6.75,1.75-8.5,8.5-8.5h333c6.75,0,8.5,1.75,8.5,8.5v33c0,6.75-1.75,8.5-8.5,8.5Zm-333-49c-6.24,0-7.5,1.26-7.5,7.5v33c0,6.24,1.26,7.5,7.5,7.5h333c6.24,0,7.5-1.26,7.5-7.5v-33c0-6.24-1.26-7.5-7.5-7.5h-333Z"/>
    </g>
    <g>
      <path class="cls-1" d="m669.5,221.5c0,6.52-1.5,8-8,8h-33c-6.5,0-8-1.5-8-8v-33c0-6.5,1.5-8,8-8h33c6.5,0,8,1.5,8,8v33Z"/>
      <path class="cls-5" d="m661.5,230h-33c-6.75,0-8.5-1.75-8.5-8.5v-33c0-6.75,1.75-8.5,8.5-8.5h33c6.75,0,8.5,1.75,8.5,8.5v33c0,6.75-1.75,8.5-8.5,8.5Zm-33-49c-6.24,0-7.5,1.26-7.5,7.5v33c0,6.24,1.26,7.5,7.5,7.5h33c6.24,0,7.5-1.26,7.5-7.5v-33c0-6.24-1.26-7.5-7.5-7.5h-33Z"/>
    </g>
    <g>
      <path class="cls-1" d="m729.5,221.5c0,6.52-1.5,8-8,8h-33c-6.5,0-8-1.5-8-8v-33c0-6.5,1.5-8,8-8h33c6.5,0,8,1.5,8,8v33Z"/>
      <path class="cls-5" d="m721.5,230h-33c-6.75,0-8.5-1.75-8.5-8.5v-33c0-6.75,1.75-8.5,8.5-8.5h33c6.75,0,8.5,1.75,8.5,8.5v33c0,6.75-1.75,8.5-8.5,8.5Zm-33-49c-6.24,0-7.5,1.26-7.5,7.5v33c0,6.24,1.26,7.5,7.5,7.5h33c6.24,0,7.5-1.26,7.5-7.5v-33c0-6.24-1.26-7.5-7.5-7.5h-33Z"/>
    </g>
    <g>
      <path class="cls-1" d="m609.5,221.5c0,6.52-1.5,8-8,8h-33c-6.5,0-8-1.5-8-8v-33c0-6.5,1.5-8,8-8h33c6.5,0,8,1.5,8,8v33Z"/>
      <path class="cls-5" d="m601.5,230h-33c-6.75,0-8.5-1.75-8.5-8.5v-33c0-6.75,1.75-8.5,8.5-8.5h33c6.75,0,8.5,1.75,8.5,8.5v33c0,6.75-1.75,8.5-8.5,8.5Zm-33-49c-6.24,0-7.5,1.26-7.5,7.5v33c0,6.24,1.26,7.5,7.5,7.5h33c6.24,0,7.5-1.26,7.5-7.5v-33c0-6.24-1.26-7.5-7.5-7.5h-33Z"/>
    </g>
  </g>
  <g id="labels">
    <g>
      <path class="cls-5" d="m802.84,43.87c.02-.4.05-.98.05-1.5v-7.02h1.04v3.65h.02c.37-.65,1.04-1.07,1.98-1.07,1.44,0,2.46,1.2,2.45,2.96,0,2.08-1.31,3.11-2.6,3.11-.84,0-1.51-.32-1.94-1.09h-.04l-.05.96h-.91Zm1.09-2.33c0,.13.02.26.05.38.2.73.82,1.24,1.58,1.24,1.1,0,1.76-.9,1.76-2.23,0-1.16-.6-2.16-1.73-2.16-.72,0-1.39.49-1.61,1.3-.02.12-.06.26-.06.43v1.04Z"/>
      <path class="cls-5" d="m812.94,43.87l-.08-.73h-.04c-.32.46-.95.86-1.78.86-1.17,0-1.77-.83-1.77-1.67,0-1.4,1.25-2.17,3.49-2.16v-.12c0-.48-.13-1.34-1.32-1.34-.54,0-1.1.17-1.51.43l-.24-.7c.48-.31,1.17-.52,1.91-.52,1.78,0,2.21,1.21,2.21,2.37v2.17c0,.5.02,1,.1,1.39h-.96Zm-.16-2.96c-1.15-.02-2.46.18-2.46,1.31,0,.68.46,1.01,1,1.01.76,0,1.24-.48,1.4-.97.04-.11.06-.23.06-.34v-1.01Z"/>
      <path class="cls-5" d="m819.64,43.65c-.28.14-.89.34-1.67.34-1.75,0-2.89-1.19-2.89-2.96s1.22-3.08,3.12-3.08c.62,0,1.17.16,1.46.3l-.24.82c-.25-.14-.65-.28-1.22-.28-1.33,0-2.05.98-2.05,2.19,0,1.34.86,2.17,2.01,2.17.6,0,1-.16,1.29-.29l.18.79Z"/>
      <path class="cls-5" d="m821.92,40.73h.02c.14-.2.35-.46.52-.66l1.7-2h1.27l-2.24,2.39,2.55,3.42h-1.28l-2-2.78-.54.6v2.18h-1.04v-8.52h1.04v5.37Z"/>
      <path class="cls-5" d="m826.37,42.79c.31.2.86.42,1.39.42.77,0,1.13-.38,1.13-.86,0-.5-.3-.78-1.08-1.07-1.04-.37-1.54-.95-1.54-1.64,0-.94.76-1.7,2-1.7.59,0,1.1.17,1.43.36l-.26.77c-.23-.14-.65-.34-1.19-.34-.62,0-.97.36-.97.79,0,.48.35.7,1.1.98,1.01.38,1.52.89,1.52,1.75,0,1.02-.79,1.74-2.17,1.74-.64,0-1.22-.16-1.63-.4l.26-.8Z"/>
      <path class="cls-5" d="m831.26,39.96c0-.74-.02-1.34-.05-1.9h.95l.05,1h.02c.43-.71,1.12-1.13,2.06-1.13,1.4,0,2.46,1.19,2.46,2.95,0,2.09-1.27,3.12-2.64,3.12-.77,0-1.44-.34-1.79-.91h-.02v3.15h-1.04v-6.28Zm1.04,1.55c0,.16.02.3.05.43.19.73.83,1.24,1.58,1.24,1.12,0,1.76-.91,1.76-2.24,0-1.16-.61-2.16-1.73-2.16-.72,0-1.39.52-1.59,1.31-.04.13-.07.29-.07.43v1Z"/>
      <path class="cls-5" d="m841.3,43.87l-.08-.73h-.04c-.32.46-.95.86-1.78.86-1.17,0-1.77-.83-1.77-1.67,0-1.4,1.25-2.17,3.49-2.16v-.12c0-.48-.13-1.34-1.32-1.34-.54,0-1.1.17-1.51.43l-.24-.7c.48-.31,1.17-.52,1.91-.52,1.78,0,2.21,1.21,2.21,2.37v2.17c0,.5.02,1,.1,1.39h-.96Zm-.16-2.96c-1.15-.02-2.46.18-2.46,1.31,0,.68.46,1.01,1,1.01.76,0,1.24-.48,1.4-.97.04-.11.06-.23.06-.34v-1.01Z"/>
      <path class="cls-5" d="m848.01,43.65c-.28.14-.89.34-1.67.34-1.75,0-2.89-1.19-2.89-2.96s1.22-3.08,3.12-3.08c.62,0,1.17.16,1.46.3l-.24.82c-.25-.14-.65-.28-1.22-.28-1.33,0-2.05.98-2.05,2.19,0,1.34.86,2.17,2.01,2.17.6,0,1-.16,1.29-.29l.18.79Z"/>
      <path class="cls-5" d="m849.76,41.16c.02,1.43.94,2.01,1.99,2.01.76,0,1.21-.13,1.61-.3l.18.76c-.37.17-1.01.36-1.93.36-1.79,0-2.85-1.18-2.85-2.93s1.03-3.13,2.72-3.13c1.89,0,2.4,1.67,2.4,2.73,0,.22-.02.38-.04.49h-4.08Zm3.09-.76c.01-.67-.28-1.71-1.46-1.71-1.07,0-1.54.98-1.62,1.71h3.08Z"/>
    </g>
    <g>
      <path class="cls-2" d="m833.22,222.73c.31.21.86.42,1.39.42.77,0,1.13-.38,1.13-.86s-.3-.78-1.08-1.07c-1.04-.37-1.54-.95-1.54-1.64,0-.93.76-1.7,2-1.7.59,0,1.1.17,1.43.36l-.26.77c-.23-.14-.65-.33-1.19-.33-.62,0-.97.36-.97.79,0,.48.35.7,1.1.98,1.01.38,1.52.89,1.52,1.75,0,1.02-.79,1.74-2.17,1.74-.64,0-1.22-.16-1.63-.4l.26-.8Z"/>
      <path class="cls-2" d="m838.11,215.3h1.05v3.62h.02c.17-.3.43-.56.76-.74.31-.18.68-.3,1.08-.3.78,0,2.03.48,2.03,2.48v3.45h-1.05v-3.33c0-.94-.35-1.73-1.34-1.73-.68,0-1.22.48-1.42,1.05-.06.14-.07.3-.07.5v3.5h-1.05v-8.52Z"/>
      <path class="cls-2" d="m845.95,216.38c.01.36-.25.65-.67.65-.37,0-.64-.29-.64-.65s.28-.66.66-.66.65.29.65.66Zm-1.17,7.44v-5.8h1.05v5.8h-1.05Z"/>
      <path class="cls-2" d="m847.69,223.81v-5h-.82v-.8h.82v-.28c0-.82.18-1.56.67-2.03.4-.38.92-.54,1.42-.54.37,0,.7.08.9.17l-.14.82c-.16-.07-.37-.13-.67-.13-.9,0-1.13.79-1.13,1.68v.31h1.4v.8h-1.4v5h-1.04Z"/>
      <path class="cls-2" d="m852.49,216.34v1.67h1.51v.8h-1.51v3.13c0,.72.2,1.13.79,1.13.28,0,.48-.04.61-.07l.05.79c-.2.08-.53.14-.94.14-.49,0-.89-.16-1.14-.44-.3-.31-.41-.83-.41-1.51v-3.17h-.9v-.8h.9v-1.39l1.03-.28Z"/>
    </g>
    <g id="right_ctrl" data-name="right ctrl">
      <path class="cls-5" d="m843.02,283.55c-.28.14-.89.34-1.67.34-1.75,0-2.89-1.19-2.89-2.96s1.22-3.08,3.12-3.08c.62,0,1.17.16,1.46.3l-.24.82c-.25-.14-.65-.28-1.22-.28-1.33,0-2.05.98-2.05,2.19,0,1.34.86,2.17,2.01,2.17.6,0,1-.16,1.29-.29l.18.79Z"/>
      <path class="cls-5" d="m845.68,276.3v1.67h1.51v.8h-1.51v3.13c0,.72.2,1.13.79,1.13.28,0,.48-.04.61-.07l.05.79c-.2.08-.53.14-.94.14-.49,0-.89-.16-1.14-.44-.3-.31-.41-.83-.41-1.51v-3.17h-.9v-.8h.9v-1.39l1.03-.28Z"/>
      <path class="cls-5" d="m848.38,279.77c0-.68-.01-1.27-.05-1.81h.92l.04,1.14h.05c.26-.78.9-1.27,1.61-1.27.12,0,.2.01.3.04v1c-.11-.02-.22-.04-.36-.04-.74,0-1.27.56-1.42,1.36-.02.14-.05.31-.05.49v3.09h-1.04v-3.99Z"/>
      <path class="cls-5" d="m852.36,275.25h1.05v8.52h-1.05v-8.52Z"/>
    </g>
    <g id="menu">
      <path class="cls-5" d="m746.08,279.53c0-.6-.01-1.09-.05-1.57h.92l.05.94h.04c.32-.55.86-1.07,1.82-1.07.79,0,1.39.48,1.64,1.16h.02c.18-.32.41-.58.65-.76.35-.26.73-.41,1.28-.41.77,0,1.91.5,1.91,2.52v3.42h-1.03v-3.29c0-1.12-.41-1.79-1.26-1.79-.6,0-1.07.44-1.25.96-.05.14-.08.34-.08.53v3.59h-1.03v-3.48c0-.92-.41-1.59-1.21-1.59-.66,0-1.14.53-1.31,1.06-.06.16-.08.34-.08.52v3.5h-1.03v-4.23Z"/>
      <path class="cls-5" d="m756.68,281.06c.02,1.43.94,2.02,1.99,2.02.76,0,1.21-.13,1.61-.3l.18.76c-.37.17-1.01.36-1.93.36-1.79,0-2.85-1.18-2.85-2.93s1.03-3.13,2.72-3.13c1.89,0,2.4,1.67,2.4,2.73,0,.22-.02.38-.04.49h-4.08Zm3.09-.76c.01-.67-.28-1.71-1.46-1.71-1.07,0-1.54.98-1.62,1.71h3.08Z"/>
      <path class="cls-5" d="m762.1,279.53c0-.6-.01-1.09-.05-1.57h.94l.06.96h.02c.29-.55.96-1.09,1.92-1.09.8,0,2.05.48,2.05,2.47v3.47h-1.05v-3.35c0-.94-.35-1.71-1.34-1.71-.7,0-1.24.49-1.42,1.08-.05.13-.07.31-.07.49v3.49h-1.05v-4.23Z"/>
      <path class="cls-5" d="m773.62,282.18c0,.6.01,1.13.05,1.58h-.94l-.06-.95h-.02c-.28.47-.89,1.08-1.92,1.08-.91,0-2-.5-2-2.54v-3.39h1.05v3.21c0,1.1.34,1.85,1.3,1.85.71,0,1.2-.49,1.39-.96.06-.16.1-.35.1-.54v-3.56h1.05v4.22Z"/>
    </g>
    <g>
      <path class="cls-3" d="m673.02,283.77l-.08-.73h-.04c-.32.46-.95.86-1.78.86-1.17,0-1.77-.83-1.77-1.67,0-1.4,1.25-2.17,3.49-2.16v-.12c0-.48-.13-1.34-1.32-1.34-.54,0-1.1.17-1.51.43l-.24-.7c.48-.31,1.17-.52,1.91-.52,1.78,0,2.21,1.21,2.21,2.37v2.17c0,.5.02.99.1,1.39h-.96Zm-.16-2.96c-1.15-.02-2.46.18-2.46,1.31,0,.68.46,1.01,1,1.01.76,0,1.24-.48,1.4-.97.04-.11.06-.23.06-.34v-1.01Z"/>
      <path class="cls-3" d="m675.59,275.25h1.05v8.52h-1.05v-8.52Z"/>
      <path class="cls-3" d="m679.7,276.3v1.67h1.51v.8h-1.51v3.13c0,.72.2,1.13.79,1.13.28,0,.48-.04.61-.07l.05.79c-.2.08-.53.14-.94.14-.49,0-.89-.16-1.14-.44-.3-.31-.41-.83-.41-1.51v-3.17h-.9v-.8h.9v-1.39l1.03-.28Z"/>
      <path class="cls-3" d="m689.94,277.96c-.02.42-.05.89-.05,1.6v3.37c0,1.33-.26,2.15-.83,2.65-.56.53-1.38.7-2.11.7s-1.46-.17-1.93-.48l.26-.8c.38.24.98.46,1.7.46,1.08,0,1.87-.56,1.87-2.03v-.65h-.02c-.32.54-.95.97-1.85.97-1.44,0-2.47-1.22-2.47-2.83,0-1.97,1.28-3.08,2.61-3.08,1.01,0,1.56.53,1.81,1.01h.02l.05-.88h.92Zm-1.09,2.29c0-.18-.01-.34-.06-.48-.19-.61-.71-1.12-1.48-1.12-1.01,0-1.73.85-1.73,2.2,0,1.14.58,2.09,1.71,2.09.65,0,1.24-.41,1.46-1.08.06-.18.08-.38.08-.56v-1.04Z"/>
      <path class="cls-3" d="m691.58,279.77c0-.68-.01-1.27-.05-1.81h.92l.04,1.14h.05c.26-.78.9-1.27,1.61-1.27.12,0,.2.01.3.04v1c-.11-.02-.22-.04-.36-.04-.74,0-1.27.56-1.42,1.36-.02.14-.05.31-.05.49v3.09h-1.04v-3.99Z"/>
    </g>
    <g id="left_alt" data-name="left alt">
      <path class="cls-5" d="m179.46,283.77l-.08-.73h-.04c-.32.46-.95.86-1.78.86-1.17,0-1.77-.83-1.77-1.67,0-1.4,1.25-2.17,3.49-2.16v-.12c0-.48-.13-1.34-1.32-1.34-.54,0-1.1.17-1.51.43l-.24-.7c.48-.31,1.17-.52,1.91-.52,1.78,0,2.21,1.21,2.21,2.37v2.17c0,.5.02.99.1,1.39h-.96Zm-.16-2.96c-1.15-.02-2.46.18-2.46,1.31,0,.68.46,1.01,1,1.01.76,0,1.24-.48,1.4-.97.04-.11.06-.23.06-.34v-1.01Z"/>
      <path class="cls-5" d="m182.04,275.25h1.05v8.52h-1.05v-8.52Z"/>
      <path class="cls-5" d="m186.14,276.3v1.67h1.51v.8h-1.51v3.13c0,.72.2,1.13.79,1.13.28,0,.48-.04.61-.07l.05.79c-.2.08-.53.14-.94.14-.49,0-.89-.16-1.14-.44-.3-.31-.41-.83-.41-1.51v-3.17h-.9v-.8h.9v-1.39l1.03-.28Z"/>
    </g>
    <g id="win">
      <path class="cls-5" d="m96.92,277.96l.77,2.95c.17.65.32,1.25.43,1.85h.04c.13-.59.32-1.21.52-1.83l.95-2.96h.89l.9,2.9c.22.7.38,1.31.52,1.89h.04c.1-.59.25-1.2.44-1.88l.83-2.91h1.04l-1.87,5.8h-.96l-.89-2.77c-.2-.65-.37-1.22-.52-1.91h-.02c-.14.7-.32,1.29-.53,1.92l-.94,2.76h-.96l-1.75-5.8h1.08Z"/>
      <path class="cls-5" d="m106.5,276.33c.01.36-.25.65-.67.65-.37,0-.64-.29-.64-.65s.28-.66.66-.66.65.29.65.66Zm-1.17,7.44v-5.8h1.05v5.8h-1.05Z"/>
      <path class="cls-5" d="m108.14,279.53c0-.6-.01-1.09-.05-1.57h.94l.06.96h.02c.29-.55.96-1.09,1.92-1.09.8,0,2.05.48,2.05,2.47v3.47h-1.05v-3.35c0-.94-.35-1.71-1.34-1.71-.7,0-1.24.49-1.42,1.08-.05.13-.07.31-.07.49v3.49h-1.05v-4.23Z"/>
    </g>
    <g id="left_ctrl" data-name="left ctrl">
      <path class="cls-5" d="m10.19,283.55c-.28.14-.89.34-1.67.34-1.75,0-2.89-1.19-2.89-2.96s1.22-3.08,3.12-3.08c.62,0,1.17.16,1.46.3l-.24.82c-.25-.14-.65-.28-1.22-.28-1.33,0-2.05.98-2.05,2.19,0,1.34.86,2.17,2.01,2.17.6,0,1-.16,1.29-.29l.18.79Z"/>
      <path class="cls-5" d="m12.86,276.3v1.67h1.51v.8h-1.51v3.13c0,.72.2,1.13.79,1.13.28,0,.48-.04.61-.07l.05.79c-.2.08-.53.14-.94.14-.49,0-.89-.16-1.14-.44-.3-.31-.41-.83-.41-1.51v-3.17h-.9v-.8h.9v-1.39l1.03-.28Z"/>
      <path class="cls-5" d="m15.56,279.77c0-.68-.01-1.27-.05-1.81h.92l.04,1.14h.05c.26-.78.9-1.27,1.61-1.27.12,0,.2.01.3.04v1c-.11-.02-.22-.04-.36-.04-.74,0-1.27.56-1.42,1.36-.02.14-.05.31-.05.49v3.09h-1.04v-3.99Z"/>
      <path class="cls-5" d="m19.53,275.25h1.05v8.52h-1.05v-8.52Z"/>
    </g>
    <g>
      <path class="cls-2" d="m5.91,222.73c.31.21.86.42,1.39.42.77,0,1.13-.38,1.13-.86s-.3-.78-1.08-1.07c-1.04-.37-1.54-.95-1.54-1.64,0-.93.76-1.7,2-1.7.59,0,1.1.17,1.43.36l-.26.77c-.23-.14-.65-.33-1.19-.33-.62,0-.97.36-.97.79,0,.48.35.7,1.1.98,1.01.38,1.52.89,1.52,1.75,0,1.02-.79,1.74-2.17,1.74-.64,0-1.22-.16-1.63-.4l.26-.8Z"/>
      <path class="cls-2" d="m10.81,215.3h1.05v3.62h.02c.17-.3.43-.56.76-.74.31-.18.68-.3,1.08-.3.78,0,2.03.48,2.03,2.48v3.45h-1.05v-3.33c0-.94-.35-1.73-1.34-1.73-.68,0-1.22.48-1.42,1.05-.06.14-.07.3-.07.5v3.5h-1.05v-8.52Z"/>
      <path class="cls-2" d="m18.64,216.38c.01.36-.25.65-.67.65-.37,0-.64-.29-.64-.65s.28-.66.66-.66.65.29.65.66Zm-1.17,7.44v-5.8h1.05v5.8h-1.05Z"/>
      <path class="cls-2" d="m20.38,223.81v-5h-.82v-.8h.82v-.28c0-.82.18-1.56.67-2.03.4-.38.92-.54,1.42-.54.37,0,.7.08.9.17l-.14.82c-.16-.07-.37-.13-.67-.13-.9,0-1.13.79-1.13,1.68v.31h1.4v.8h-1.4v5h-1.04Z"/>
      <path class="cls-2" d="m25.18,216.34v1.67h1.51v.8h-1.51v3.13c0,.72.2,1.13.79,1.13.28,0,.48-.04.61-.07l.05.79c-.2.08-.53.14-.94.14-.49,0-.89-.16-1.14-.44-.3-.31-.41-.83-.41-1.51v-3.17h-.9v-.8h.9v-1.39l1.03-.28Z"/>
    </g>
    <g>
      <path class="cls-5" d="m10.19,163.72c-.28.14-.89.34-1.67.34-1.75,0-2.89-1.19-2.89-2.96s1.22-3.08,3.12-3.08c.62,0,1.17.16,1.46.3l-.24.82c-.25-.14-.65-.28-1.22-.28-1.33,0-2.05.98-2.05,2.19,0,1.34.86,2.17,2.01,2.17.6,0,1-.16,1.29-.29l.18.79Z"/>
      <path class="cls-5" d="m14.65,163.94l-.08-.73h-.04c-.32.46-.95.86-1.78.86-1.17,0-1.77-.83-1.77-1.67,0-1.4,1.25-2.17,3.49-2.16v-.12c0-.48-.13-1.34-1.32-1.34-.54,0-1.1.17-1.51.43l-.24-.7c.48-.31,1.17-.52,1.91-.52,1.78,0,2.21,1.21,2.21,2.37v2.17c0,.5.02,1,.1,1.39h-.96Zm-.16-2.96c-1.15-.02-2.46.18-2.46,1.31,0,.68.46,1.01,1,1.01.76,0,1.24-.48,1.4-.97.04-.11.06-.23.06-.34v-1.01Z"/>
      <path class="cls-5" d="m17.22,160.03c0-.74-.02-1.34-.05-1.9h.95l.05,1h.02c.43-.71,1.12-1.13,2.06-1.13,1.4,0,2.46,1.19,2.46,2.95,0,2.09-1.27,3.12-2.64,3.12-.77,0-1.44-.34-1.79-.91h-.02v3.15h-1.04v-6.28Zm1.04,1.55c0,.16.02.3.05.43.19.73.83,1.23,1.58,1.23,1.12,0,1.76-.91,1.76-2.24,0-1.16-.61-2.16-1.73-2.16-.72,0-1.39.52-1.59,1.31-.04.13-.07.29-.07.43v1Z"/>
      <path class="cls-5" d="m23.9,162.86c.31.2.86.42,1.39.42.77,0,1.13-.38,1.13-.86,0-.5-.3-.78-1.08-1.07-1.04-.37-1.54-.95-1.54-1.64,0-.94.76-1.7,2-1.7.59,0,1.1.17,1.43.36l-.26.77c-.23-.14-.65-.34-1.19-.34-.62,0-.97.36-.97.79,0,.48.35.7,1.1.98,1.01.38,1.52.89,1.52,1.75,0,1.02-.79,1.74-2.17,1.74-.64,0-1.22-.16-1.63-.4l.26-.8Z"/>
      <path class="cls-5" d="m31.34,155.42h1.05v8.52h-1.05v-8.52Z"/>
      <path class="cls-5" d="m39.42,160.99c0,2.15-1.49,3.08-2.89,3.08-1.57,0-2.78-1.15-2.78-2.99,0-1.94,1.27-3.08,2.88-3.08s2.79,1.21,2.79,2.99Zm-4.61.06c0,1.27.73,2.23,1.76,2.23s1.76-.95,1.76-2.26c0-.98-.49-2.23-1.74-2.23s-1.79,1.15-1.79,2.25Z"/>
      <path class="cls-5" d="m44.9,163.72c-.28.14-.89.34-1.67.34-1.75,0-2.89-1.19-2.89-2.96s1.22-3.08,3.12-3.08c.62,0,1.17.16,1.46.3l-.24.82c-.25-.14-.65-.28-1.22-.28-1.33,0-2.05.98-2.05,2.19,0,1.34.86,2.17,2.01,2.17.6,0,1-.16,1.29-.29l.18.79Z"/>
      <path class="cls-5" d="m47.18,160.8h.02c.14-.2.35-.46.52-.66l1.7-2h1.27l-2.24,2.39,2.55,3.42h-1.28l-2-2.78-.54.6v2.18h-1.04v-8.52h1.04v5.37Z"/>
    </g>
    <g>
      <path class="cls-5" d="m7.33,96.35v1.67h1.51v.8h-1.51v3.13c0,.72.2,1.13.79,1.13.28,0,.48-.04.61-.07l.05.79c-.2.08-.53.14-.94.14-.49,0-.89-.16-1.14-.44-.3-.31-.41-.83-.41-1.51v-3.17h-.9v-.8h.9v-1.39l1.03-.28Z"/>
      <path class="cls-5" d="m13.24,103.82l-.08-.73h-.04c-.32.46-.95.86-1.78.86-1.17,0-1.77-.83-1.77-1.67,0-1.4,1.25-2.17,3.49-2.16v-.12c0-.48-.13-1.34-1.32-1.34-.54,0-1.1.17-1.51.43l-.24-.7c.48-.31,1.17-.52,1.91-.52,1.78,0,2.21,1.21,2.21,2.37v2.17c0,.5.02,1,.1,1.39h-.96Zm-.16-2.96c-1.15-.02-2.46.18-2.46,1.31,0,.68.46,1.01,1,1.01.76,0,1.24-.48,1.4-.97.04-.11.06-.23.06-.34v-1.01Z"/>
      <path class="cls-5" d="m15.76,103.82c.02-.4.05-.98.05-1.5v-7.02h1.04v3.65h.02c.37-.65,1.04-1.07,1.98-1.07,1.44,0,2.46,1.2,2.45,2.96,0,2.08-1.31,3.11-2.6,3.11-.84,0-1.51-.32-1.94-1.09h-.04l-.05.96h-.91Zm1.09-2.33c0,.13.02.26.05.38.2.73.82,1.24,1.58,1.24,1.1,0,1.76-.9,1.76-2.23,0-1.16-.6-2.16-1.73-2.16-.72,0-1.39.49-1.61,1.3-.02.12-.06.26-.06.43v1.04Z"/>
    </g>
    <g>
      <path class="cls-5" d="m850.5,100h-22.5c-.28,0-.5-.22-.5-.5s.22-.5.5-.5h22.5c2.24,0,2.5-.26,2.5-2.5v-3c0-2.24-.26-2.5-2.5-2.5h-6.5c-.28,0-.5-.22-.5-.5s.22-.5.5-.5h6.5c2.78,0,3.5.72,3.5,3.5v3c0,2.78-.72,3.5-3.5,3.5Z"/>
      <path class="cls-5" d="m828,100c-.17,0-.34-.09-.43-.25-.14-.24-.06-.54.18-.68l6.94-4.01c.24-.14.55-.06.68.18.14.24.06.54-.18.68l-6.94,4.01c-.08.05-.17.07-.25.07Z"/>
      <path class="cls-5" d="m834.94,104.01c-.08,0-.17-.02-.25-.07l-6.94-4.01c-.24-.14-.32-.44-.18-.68.14-.24.44-.32.68-.18l6.94,4.01c.24.14.32.44.18.68-.09.16-.26.25-.43.25Z"/>
    </g>
  </g>
  <g id="original">
    <path class="cls-6" d="m336.86,216.47c-.09-1.69-.2-3.73-.18-5.24h-.05c-.41,1.42-.92,2.94-1.53,4.61l-2.14,5.89h-1.19l-1.96-5.78c-.58-1.71-1.06-3.28-1.4-4.72h-.04c-.04,1.51-.13,3.55-.23,5.37l-.32,5.2h-1.49l.85-12.14h2l2.07,5.87c.5,1.49.92,2.83,1.22,4.09h.05c.31-1.22.74-2.56,1.28-4.09l2.16-5.87h2l.76,12.14h-1.53l-.31-5.33Z"/>
    <path class="cls-6" d="m89.5,222.52l5.02-13.05h1.22l-5.04,13.05h-1.21Z"/>
    <path class="cls-6" d="m147.89,221.8c.18-.32.34-.7.49-1.1.52-1.39.85-3.08,1.84-4.07.29-.29.65-.5,1.01-.61v-.05c-1.49-.25-2.68-1.33-2.68-2.99,0-1.06.43-1.91,1.12-2.47.76-.61,1.94-.94,3.48-.94,1.03,0,2.11.09,2.9.25v11.97h-1.57v-5.26h-1.15c-.76,0-1.31.16-1.75.59-.83.85-1.17,2.63-1.6,3.78-.13.31-.22.56-.4.88h-1.67Zm6.57-10.88c-.27-.05-.77-.14-1.48-.14-1.55,0-2.86.59-2.86,2.27,0,1.46,1.3,2.3,3.01,2.3.52,0,1.03,0,1.33-.02v-4.41Z"/>
    <path class="cls-6" d="m210.05,209.66v3.85c0,1.66.86,2.59,2.57,2.59.85,0,1.76-.29,2.4-.68v-5.76h1.58v12.14h-1.58v-5.15h-.04c-.85.49-1.85.76-2.92.76-1.6,0-3.58-.68-3.58-3.65v-4.09h1.57Z"/>
    <path class="cls-6" d="m389.54,209.66v5.11c0,1.93-.04,3.51-.14,5.13l.04.02c.61-1.26,1.37-2.58,2.25-4.02l3.93-6.25h1.57v12.14h-1.48v-5.17c0-1.96.02-3.4.14-4.93l-.05-.02c-.59,1.33-1.42,2.74-2.25,4.09l-3.8,6.03h-1.67v-12.14h1.48Z"/>
    <path class="cls-6" d="m453.99,210.99h-3.69v-1.33h8.98v1.33h-3.71v10.8h-1.58v-10.8Z"/>
    <path class="cls-6" d="m510.62,209.66v4.54c.36-.05,1.08-.09,1.49-.09,2.48,0,4.68,1.1,4.68,3.78,0,1.13-.36,1.96-.94,2.59-.99,1.04-2.68,1.42-4.36,1.42-1.1,0-1.93-.07-2.45-.14v-12.1h1.57Zm0,10.93c.36.07.76.09,1.3.09,1.75,0,3.24-.85,3.24-2.7s-1.53-2.63-3.26-2.63c-.4,0-.88.04-1.28.09v5.15Z"/>
    <path class="cls-6" d="m575.85,209.66v1.31h-5.24v3.26c.38-.05,1.1-.09,1.49-.09,1.15,0,2.29.25,3.13.81.92.59,1.55,1.55,1.55,2.97,0,1.13-.38,2-1.01,2.63-.99.97-2.63,1.35-4.29,1.35-1.1,0-1.93-.07-2.45-.14v-12.1h6.81Zm-5.24,10.93c.36.07.77.09,1.31.09.97,0,1.96-.31,2.56-.94.41-.43.67-1.03.67-1.78,0-.94-.4-1.57-.99-1.98-.63-.43-1.44-.61-2.3-.61-.36,0-.85.04-1.24.07v5.15Z"/>
    <path class="cls-6" d="m627.63,209.66v5.24h1.8c.32-3.39,2.3-5.44,5.17-5.44,3.15,0,5.06,2.54,5.06,6.14,0,4.21-2.34,6.39-5.22,6.39s-4.92-2.23-5.04-5.78h-1.76v5.58h-1.57v-12.14h1.57Zm10.43,6.01c0-2.41-1.13-4.95-3.53-4.95s-3.58,2.45-3.58,5.08,1.28,4.93,3.55,4.93,3.57-2.3,3.57-5.06Z"/>
    <path class="cls-6" d="m691.48,221.8v-2.17h2.17v2.17h-2.17Z"/>
    <path class="cls-6" d="m277.13,221.4c-.58.29-1.73.58-3.21.58-3.42,0-6-2.16-6-6.14s2.57-6.37,6.34-6.37c1.51,0,2.47.32,2.88.54l-.38,1.28c-.59-.29-1.44-.5-2.45-.5-2.84,0-4.74,1.82-4.74,5.01,0,2.97,1.71,4.88,4.66,4.88.95,0,1.93-.2,2.56-.5l.32,1.24Z"/>
    <path class="cls-6" d="m295.42,158.04l-1.26,3.82h-1.62l4.12-12.14h1.89l4.14,12.14h-1.67l-1.3-3.82h-4.3Zm3.98-1.22l-1.19-3.49c-.27-.79-.45-1.51-.63-2.21h-.04c-.18.72-.38,1.46-.61,2.2l-1.19,3.51h3.65Z"/>
    <path class="cls-6" d="m118.37,149.24v1.08c2.56.11,5.11,1.66,5.11,5.47s-2.56,5.28-5.13,5.42v1.13h-1.51v-1.13c-2.54-.16-5.11-1.51-5.11-5.35s2.81-5.4,5.15-5.55v-1.08h1.49Zm-1.51,2.21c-1.58.09-3.51,1.19-3.51,4.34,0,2.9,1.73,4.12,3.51,4.3v-8.64Zm1.49,8.64c1.75-.14,3.51-1.31,3.51-4.32s-1.76-4.23-3.51-4.32v8.64Z"/>
    <path class="cls-6" d="m178.46,149.72v12.14h-1.57v-12.14h1.57Z"/>
    <path class="cls-6" d="m362.1,149.72v12.14h-1.57v-10.82h-5.64v10.82h-1.57v-12.14h8.77Z"/>
    <path class="cls-6" d="m414.19,149.87c.76-.13,1.75-.23,3.01-.23,1.55,0,2.68.36,3.4,1.01.67.58,1.06,1.46,1.06,2.54s-.32,1.96-.94,2.59c-.83.88-2.18,1.33-3.71,1.33-.47,0-.9-.02-1.26-.11v4.86h-1.57v-11.99Zm1.57,5.85c.34.09.77.13,1.3.13,1.89,0,3.04-.92,3.04-2.59s-1.13-2.38-2.86-2.38c-.68,0-1.21.05-1.48.13v4.72Z"/>
    <path class="cls-6" d="m483.22,155.66c0,4.18-2.54,6.39-5.64,6.39s-5.46-2.48-5.46-6.16c0-3.85,2.39-6.37,5.64-6.37s5.46,2.54,5.46,6.14Zm-9.42.2c0,2.59,1.4,4.92,3.87,4.92s3.89-2.29,3.89-5.04c0-2.41-1.26-4.93-3.87-4.93s-3.89,2.39-3.89,5.06Z"/>
    <path class="cls-6" d="m541.69,149.72v12.14h-1.58v-10.82h-4.02v3.67c0,2.63-.11,5.56-1.82,6.72-.45.29-1.15.58-1.85.58l-.2-1.26c.49-.09.99-.38,1.28-.65.97-.95,1.06-3.31,1.06-5.26v-5.11h7.13Z"/>
    <path class="cls-6" d="m721.84,151.33c-.59-.29-1.46-.5-2.4-.5-2.75,0-4.43,1.87-4.68,4.21h6.23v1.26h-6.21c.07,2.45,1.84,4.45,4.61,4.45.94,0,1.82-.18,2.52-.49l.29,1.21c-.59.29-1.66.59-3.1.59-3.44,0-6.03-2.32-6.03-6.25,0-3.42,2.38-6.28,6.32-6.28,1.53,0,2.39.36,2.83.58l-.38,1.22Z"/>
    <path class="cls-6" d="m779.55,162.58l-4.9-13.05h1.22l4.9,13.05h-1.22Z"/>
    <path class="cls-6" d="m601.61,149.72v10.86l1.06.04-.11,4.16h-1.22l-.11-2.92h-7.65l-.11,2.92h-1.22l-.11-4.16.92-.04c.45-.83.9-1.71,1.19-2.67.41-1.4.58-3.02.58-5.11v-3.08h6.79Zm-5.33,3.58c0,1.94-.18,3.58-.61,4.95-.25.85-.63,1.66-.99,2.3h5.37v-9.54h-3.76v2.29Z"/>
    <path class="cls-6" d="m652.69,149.72l3.76,5.38h.47v-5.38h1.53v5.38h.49l3.75-5.38h1.84l-4.3,5.58c1.91.2,2.68,1.39,3.28,3.11.41,1.15.7,2.32,1.21,3.44h-1.6c-.41-.81-.7-1.98-1.01-2.84-.56-1.66-1.17-2.72-3.11-2.72h-.52v5.56h-1.53v-5.56h-.54c-1.94,0-2.56,1.06-3.13,2.72-.29.86-.58,2.04-.97,2.84h-1.6c.52-1.12.81-2.29,1.21-3.42.61-1.71,1.39-2.9,3.28-3.13l-4.3-5.58h1.84Z"/>
    <path class="cls-6" d="m234.08,149.88c.68-.14,1.76-.25,2.86-.25,1.57,0,2.57.27,3.33.88.63.47,1.01,1.19,1.01,2.14,0,1.17-.77,2.2-2.05,2.66v.04c1.15.29,2.5,1.24,2.5,3.04,0,1.04-.41,1.84-1.03,2.43-.85.77-2.21,1.13-4.19,1.13-1.08,0-1.91-.07-2.43-.14v-11.94Zm1.57,4.97h1.42c1.66,0,2.63-.86,2.63-2.03,0-1.42-1.08-1.98-2.67-1.98-.72,0-1.13.05-1.39.11v3.91Zm0,5.82c.31.05.76.07,1.31.07,1.62,0,3.12-.59,3.12-2.36,0-1.66-1.42-2.34-3.13-2.34h-1.3v4.63Z"/>
    <path class="cls-6" d="m280.61,89.72v5.38h.49l4.16-5.38h1.89l-4.59,5.56c2,.27,2.77,1.49,3.4,3.13.45,1.24.79,2.36,1.33,3.44h-1.69c-.43-.83-.77-1.91-1.1-2.86-.56-1.6-1.33-2.7-3.39-2.7h-.5v5.56h-1.55v-12.14h1.55Z"/>
    <path class="cls-6" d="m99.51,89.72v5.11c0,1.93-.04,3.51-.14,5.13l.04.02c.61-1.26,1.37-2.57,2.25-4.02l3.93-6.25h1.57v12.14h-1.48v-5.17c0-1.96.02-3.4.14-4.93l-.05-.02c-.59,1.33-1.42,2.74-2.25,4.09l-3.8,6.03h-1.67v-12.14h1.48Zm1.98-2.54c.07.56.25,1.12,1.1,1.12s1.03-.52,1.1-1.12h1.21c-.09,1.19-.81,1.93-2.34,1.93s-2.18-.74-2.27-1.93h1.21Z"/>
    <path class="cls-6" d="m159.73,89.72v10.82h5.56v-10.82h1.58v10.86l1.06.04-.11,4.16h-1.24l-.11-2.92h-8.32v-12.14h1.57Z"/>
    <path class="cls-6" d="m345.92,96.16h-4.72v4.38h5.26v1.31h-6.82v-12.14h6.55v1.31h-4.99v3.83h4.72v1.3Z"/>
    <path class="cls-6" d="m399.66,89.72v5.08h5.87v-5.08h1.58v12.14h-1.58v-5.69h-5.87v5.69h-1.57v-12.14h1.57Z"/>
    <path class="cls-6" d="m466.59,89.72v1.31h-4.88v10.82h-1.57v-12.14h6.45Z"/>
    <path class="cls-6" d="m517.96,89.72v10.82h3.94v-10.82h1.55v10.82h3.92v-10.82h1.57v12.14h-12.53v-12.14h1.55Z"/>
    <path class="cls-6" d="m705.46,101.85l-1.55-2.68c-.63-1.03-1.03-1.69-1.4-2.4h-.04c-.34.7-.68,1.35-1.31,2.41l-1.46,2.67h-1.8l3.71-6.14-3.56-6h1.82l1.6,2.84c.45.79.79,1.4,1.12,2.05h.05c.34-.72.65-1.28,1.1-2.05l1.66-2.84h1.8l-3.69,5.91,3.78,6.23h-1.82Z"/>
    <path class="cls-6" d="m760.12,87.95c0-.49.4-.9.9-.9s.86.4.86.9-.34.92-.86.92-.9-.41-.9-.92Zm3.33,1.76v12.14h-1.57v-12.14h1.57Zm.02-1.76c0-.49.38-.9.9-.9s.86.4.86.9-.34.92-.88.92-.88-.41-.88-.92Z"/>
    <path class="cls-6" d="m577.73,89.72v10.82h3.94v-10.82h1.55v10.82h3.92v-10.82h1.57v10.86l1.06.04-.11,4.16h-1.24l-.09-2.92h-12.15v-12.14h1.55Z"/>
    <path class="cls-6" d="m639.13,90.44c.83-.54,1.89-.92,3.21-.92,2.11,0,3.56,1.1,3.56,2.97,0,1.49-1.08,2.63-2.5,2.95v.04c1.71.18,2.95,1.3,2.95,3.04,0,2.52-2.18,3.53-4.39,3.53-1.1,0-2.25-.23-3.17-.79l.41-1.22c.65.38,1.73.74,2.72.74,1.8,0,2.79-.97,2.79-2.3,0-1.82-1.75-2.34-3.29-2.34h-.72v-1.19h.72c1.6,0,2.84-.99,2.84-2.23s-.86-1.91-2.18-1.91c-.92,0-1.87.38-2.52.79l-.43-1.15Z"/>
    <path class="cls-6" d="m219.7,89.72l2.41,5.17c.31.72.59,1.42.88,2.14h.04c.22-.63.45-1.33.76-2.2l1.89-5.11h1.66l-2.54,6.23c-.67,1.62-1.42,3.48-2.27,4.61-.79.99-1.67,1.49-2.75,1.49-.4,0-.68-.04-.88-.11l.16-1.28c.13.04.31.05.58.05,1.26-.02,2-1.22,2.38-2.09.13-.27.09-.45-.05-.74l-4.03-8.17h1.78Z"/>
    <path class="cls-6" d="m189.14,40.06c.45.29,1.49.74,2.59.74,2.03,0,2.66-1.3,2.65-2.27-.02-1.64-1.49-2.34-3.02-2.34h-.88v-1.19h.88c1.15,0,2.61-.59,2.61-1.98,0-.94-.59-1.76-2.05-1.76-.94,0-1.84.41-2.34.77l-.41-1.15c.61-.45,1.8-.9,3.06-.9,2.3,0,3.35,1.37,3.35,2.79,0,1.21-.72,2.23-2.16,2.75v.04c1.44.29,2.61,1.37,2.61,3.01,0,1.87-1.46,3.51-4.27,3.51-1.31,0-2.47-.41-3.04-.79l.43-1.22Z"/>
    <path class="cls-6" d="m13.66,29v1.88c0,1.93-.72,2.96-2.17,3.1v-.65c.56-.15.84-.81.84-1.99v-.18h-.84v-2.17h2.17Z"/>
    <path class="cls-6" d="m72.28,31.65h-.04l-2.03,1.1-.31-1.21,2.56-1.37h1.35v11.7h-1.53v-10.23Z"/>
    <path class="cls-6" d="m253.77,41.88v-3.19h-5.44v-1.04l5.22-7.47h1.71v7.27h1.64v1.24h-1.64v3.19h-1.49Zm0-4.43v-3.91c0-.61.02-1.22.05-1.84h-.05c-.36.68-.65,1.19-.97,1.73l-2.86,3.98v.04h3.83Z"/>
    <path class="cls-6" d="m315.77,31.5h-4.47l-.45,3.01c.27-.04.52-.07.95-.07.9,0,1.8.2,2.52.63.92.52,1.67,1.53,1.67,3.01,0,2.29-1.82,4-4.36,4-1.28,0-2.36-.36-2.92-.72l.4-1.21c.49.29,1.44.65,2.5.65,1.49,0,2.77-.97,2.77-2.54-.02-1.51-1.03-2.59-3.37-2.59-.67,0-1.19.07-1.62.13l.76-5.62h5.6v1.33Z"/>
    <path class="cls-6" d="m375.53,31.29c-.32-.02-.74,0-1.19.07-2.48.41-3.8,2.23-4.07,4.16h.05c.56-.74,1.53-1.35,2.83-1.35,2.07,0,3.53,1.49,3.53,3.78,0,2.14-1.46,4.12-3.89,4.12s-4.14-1.94-4.14-4.99c0-2.3.83-4.12,1.98-5.28.97-.95,2.27-1.55,3.75-1.73.47-.07.86-.09,1.15-.09v1.3Zm-.45,6.75c0-1.67-.95-2.68-2.41-2.68-.95,0-1.84.59-2.27,1.44-.11.18-.18.41-.18.7.04,1.93.92,3.35,2.57,3.35,1.37,0,2.29-1.13,2.29-2.81Z"/>
    <path class="cls-6" d="m436.45,30.17v1.04l-5.1,10.66h-1.64l5.08-10.35v-.04h-5.73v-1.31h7.38Z"/>
    <path class="cls-6" d="m616.55,35.9c0,3.98-1.48,6.18-4.07,6.18-2.29,0-3.84-2.14-3.87-6.01,0-3.92,1.69-6.09,4.07-6.09s3.87,2.2,3.87,5.92Zm-6.36.18c0,3.04.94,4.77,2.38,4.77,1.62,0,2.39-1.89,2.39-4.88s-.74-4.77-2.38-4.77c-1.39,0-2.39,1.69-2.39,4.88Z"/>
    <path class="cls-6" d="m674.88,36.42v1.17h-4.45v-1.17h4.45Z"/>
    <path class="cls-6" d="m727.94,35.81v-1.08h9.29v1.08h-9.29Zm0,3.53v-1.08h9.29v1.08h-9.29Z"/>
    <path class="cls-6" d="m488.63,38.9c0-1.48.88-2.52,2.32-3.13l-.02-.05c-1.3-.61-1.85-1.62-1.85-2.63,0-1.85,1.57-3.11,3.62-3.11,2.27,0,3.4,1.42,3.4,2.88,0,.99-.49,2.05-1.93,2.74v.05c1.46.58,2.36,1.6,2.36,3.02,0,2.03-1.75,3.4-3.98,3.4-2.45,0-3.93-1.46-3.93-3.17Zm6.3-.07c0-1.42-.99-2.11-2.58-2.56-1.37.4-2.11,1.3-2.11,2.41-.05,1.19.85,2.23,2.34,2.23s2.34-.88,2.34-2.09Zm-4.36-5.85c0,1.17.88,1.8,2.23,2.16,1.01-.34,1.78-1.06,1.78-2.12,0-.94-.56-1.91-1.98-1.91-1.31,0-2.03.86-2.03,1.87Z"/>
    <path class="cls-6" d="m549.76,40.76c.34.04.74,0,1.28-.05.92-.13,1.78-.5,2.45-1.13.78-.7,1.33-1.73,1.55-3.11h-.05c-.65.79-1.58,1.26-2.75,1.26-2.11,0-3.46-1.58-3.46-3.58,0-2.21,1.6-4.16,4-4.16s3.87,1.94,3.87,4.93c0,2.57-.86,4.38-2.02,5.49-.9.88-2.14,1.42-3.4,1.57-.58.09-1.08.11-1.46.09v-1.3Zm.58-6.73c0,1.46.88,2.48,2.25,2.48,1.06,0,1.89-.52,2.3-1.22.09-.14.14-.32.14-.58,0-2-.74-3.53-2.39-3.53-1.35,0-2.3,1.19-2.3,2.84Z"/>
    <path class="cls-6" d="m128.76,41.88v-.97l1.24-1.21c2.99-2.84,4.34-4.36,4.36-6.12,0-1.19-.58-2.29-2.32-2.29-1.06,0-1.94.54-2.48.99l-.5-1.12c.81-.68,1.96-1.19,3.31-1.19,2.52,0,3.58,1.73,3.58,3.4,0,2.16-1.57,3.91-4.03,6.28l-.94.86v.04h5.26v1.31h-7.47Z"/>
  </g>
  <g id="alt">
    <path class="cls-3" d="m353.62,219.09h3.15v-10.3h1.3v10.3h3.15l-3.8,3.8-3.8-3.8Z"/>
    <path class="cls-3" d="m118.13,205.29v18h-1.21v-18h1.21Z"/>
    <path class="cls-3" d="m118.13,206.29v18h-1.21v-18h1.21Z"/>
    <path class="cls-3" d="m233.65,212.33l3.85,3.94,3.85-3.94.79.79-3.87,3.94,3.87,3.94-.79.79-3.85-3.94-3.85,3.94-.79-.79,3.85-3.94-3.85-3.94.79-.79Z"/>
    <path class="cls-3" d="m542.16,216.45v1.08h-9.29v-1.08h9.29Z"/>
    <path class="cls-3" d="m598.1,213.77l-2.6,3.25,2.6,3.25-.86.65-3.47-3.9,3.47-3.9.86.65Zm3.47,0l-2.6,3.25,2.6,3.25-.86.65-3.47-3.9,3.47-3.9.86.65Z"/>
    <path class="cls-3" d="m654.21,213.12l3.47,3.9-3.47,3.9-.86-.65,2.6-3.25-2.6-3.25.86-.65Zm3.47,0l3.47,3.9-3.47,3.9-.86-.65,2.6-3.25-2.6-3.25.86-.65Z"/>
    <path class="cls-3" d="m292.59,210.46c1.34-1.33,2.95-2,4.83-2s3.5.67,4.83,2,2,2.94,2,4.82-.67,3.52-2,4.85-2.97,2-4.9,2-3.42-.67-4.75-2.02-2-2.95-2-4.81.67-3.5,2-4.83Zm-1.03,4.83c0,1.58.57,2.95,1.71,4.12,1.14,1.15,2.49,1.73,4.06,1.73,1.91,0,3.43-.7,4.55-2.1.92-1.14,1.38-2.39,1.38-3.76,0-1.61-.57-2.99-1.71-4.13s-2.52-1.71-4.14-1.71-2.99.57-4.13,1.71-1.72,2.53-1.72,4.14Zm6.12-3.85c.54,0,1.21.08,2,.23l.23.04v1.08c-.81-.33-1.52-.49-2.14-.49-.43,0-.8.08-1.12.25s-.59.38-.81.66-.38.59-.48.96-.16.74-.16,1.14c0,.45.06.85.19,1.21.13.36.31.67.54.92s.52.45.86.58.72.2,1.14.2c.66,0,1.32-.18,1.99-.54v1.09c-.82.29-1.57.43-2.24.43-.56,0-1.08-.1-1.54-.29s-.86-.46-1.2-.8c-.33-.34-.59-.75-.77-1.22-.18-.47-.27-.99-.27-1.54s.09-1.11.26-1.59c.17-.48.42-.89.75-1.23.33-.34.73-.61,1.2-.8s1-.28,1.58-.28Z"/>
    <path class="cls-3" d="m318.9,161.86v-.9c1.21-.61,2.05-1.8,2.05-3.15,0-.43-.02-.79-.09-1.26h-1.85v-1.13h1.67c-.09-.54-.2-1.24-.2-1.94,0-2.12,1.46-3.51,3.46-3.51.94,0,1.58.22,1.96.45l-.36,1.19c-.32-.18-.85-.36-1.6-.36-1.4,0-1.98.97-1.98,2.25,0,.77.11,1.35.22,1.93h2.59v1.13h-2.45c.05.68.09,1.37-.07,2.02-.2.77-.63,1.42-1.24,1.94v.04h5.37v1.31h-7.47Z"/>
    <path class="cls-3" d="m199.45,153.14v2.97c.34-.07.85-.11,1.42-.11,1.87,0,3.76.77,3.76,2.92,0,.92-.34,1.55-.9,2.02-.95.81-2.36,1.01-3.51,1.01-.88,0-1.69-.05-2.34-.13v-8.68h1.57Zm0,7.62c.31.04.65.07,1.1.07,1.21,0,2.52-.5,2.52-1.85s-1.26-1.84-2.45-1.84c-.45,0-.85.04-1.17.09v3.53Zm7.85-7.62v8.71h-1.57v-8.71h1.57Z"/>
    <path class="cls-3" d="m438.36,154.87v-1.19h4.25c.3-.31.54-.66.71-1.04.17-.38.26-.76.26-1.13,0-.42-.14-.73-.42-.92-.28-.19-.77-.29-1.45-.29-.48,0-.89.05-1.21.16-.33.11-.63.23-.91.36l-.45-1.21c.17-.08.34-.16.52-.22.18-.07.38-.13.6-.18.22-.05.47-.1.75-.13.28-.03.6-.04.97-.04,1.02,0,1.79.19,2.31.56s.78.94.78,1.69c0,.46-.09.89-.27,1.3-.18.41-.4.78-.67,1.09h1.6v1.19h-7.38Zm7.38,1.28v1.19h-4.14c-.13.13-.26.28-.39.45s-.24.35-.34.54c-.1.19-.19.39-.25.58-.07.2-.1.38-.1.56,0,.43.17.76.5.99s.9.35,1.69.35c.56,0,1.03-.06,1.4-.17.37-.11.7-.23.97-.37l.43,1.15c-.28.17-.65.32-1.12.45-.47.13-1.12.2-1.95.2-1.15,0-2.01-.21-2.57-.64s-.85-1.03-.85-1.81c0-.22.04-.44.11-.68.07-.23.16-.45.27-.66.11-.2.22-.39.33-.56.11-.17.21-.3.28-.4h-1.66v-1.19h7.38Z"/>
    <path class="cls-3" d="m741.03,156.89h4.39c-.14-1.49-1.06-2.72-3.01-2.72-.92,0-1.62.27-2.09.49l-.34-1.03c.76-.43,1.76-.68,2.68-.68,1.26,0,2.39.43,3.17,1.24.74.77,1.19,1.93,1.19,3.35,0,2.54-1.67,4.52-4.63,4.52-.94,0-1.84-.23-2.54-.59l.31-1.13c.42.18,1.15.47,2.18.47,1.75,0,2.92-1.1,3.06-2.83h-4.38v-1.08Z"/>
    <path class="cls-3" d="m801.55,157.79c.04,2.14,1.4,3.02,2.99,3.02,1.13,0,1.82-.2,2.41-.45l.27,1.13c-.56.25-1.51.54-2.9.54-2.68,0-4.29-1.77-4.29-4.39s1.55-4.7,4.09-4.7c2.85,0,3.6,2.5,3.6,4.1,0,.32-.04.58-.05.74h-6.12Zm4.64-1.13c.02-1.01-.41-2.57-2.2-2.57-1.6,0-2.3,1.48-2.43,2.57h4.63Zm-4.59-5.98c0-.5.42-.92.92-.92s.88.4.88.92c0,.49-.36.92-.88.92s-.92-.43-.92-.92Zm3.35,0c0-.5.4-.92.9-.92s.88.4.88.92c0,.49-.36.92-.88.92s-.9-.43-.9-.92Z"/>
    <path class="cls-3" d="m264.94,151.87c0,1.46-1.17,2.41-2.41,2.41-1.4,0-2.36-1.06-2.36-2.32-.02-1.39,1.06-2.43,2.4-2.43,1.48,0,2.38,1.12,2.38,2.34Zm-3.8.09c0,.83.61,1.48,1.4,1.48s1.42-.67,1.42-1.55c0-.67-.4-1.51-1.42-1.51-.94,0-1.4.81-1.4,1.58Z"/>
    <path class="cls-3" d="m302.67,91.51c1.34-1.33,2.95-2,4.83-2s3.5.67,4.83,2,2,2.94,2,4.82-.67,3.52-2,4.85-2.97,2-4.9,2-3.42-.67-4.75-2.02-2-2.95-2-4.81.67-3.5,2-4.83Zm-1.03,4.83c0,1.61.57,2.98,1.71,4.12,1.14,1.15,2.5,1.73,4.07,1.73,1.91,0,3.43-.7,4.55-2.1.92-1.14,1.38-2.39,1.38-3.76s-.46-2.61-1.38-3.74c-1.12-1.4-2.62-2.1-4.47-2.1s-3.35.7-4.47,2.1c-.92,1.14-1.38,2.39-1.38,3.75Zm3.6,3.72v-7.38h2.33c1.49,0,2.23.6,2.23,1.81,0,.89-.43,1.6-1.29,2.14l2.22,3.44h-1.38l-2-3.08h-.93v3.08h-1.19Zm1.11-6.62v2.62h.34c1.3,0,1.95-.49,1.95-1.46,0-.77-.54-1.16-1.63-1.16h-.66Z"/>
    <path class="cls-3" d="m366.68,89.72v.81h-1.57v4.09h-.97v-4.09h-1.57v-.81h4.11Zm5.29,4.9l-.18-2.88c-.02-.38-.02-.85-.04-1.37h-.05c-.13.43-.27,1.01-.41,1.46l-.88,2.72h-1.01l-.88-2.79c-.09-.38-.23-.95-.34-1.39h-.05c0,.45-.02.92-.04,1.37l-.18,2.88h-.94l.36-4.9h1.46l.85,2.4c.11.38.2.74.32,1.24h.02c.13-.45.23-.86.34-1.22l.85-2.41h1.4l.38,4.9h-.97Z"/>
    <path class="cls-3" d="m489.46,93.14l.21-1.96h1.13l-.11,3.22h-3.8v7.45h-1.57v-8.71h4.12Z"/>
    <path class="cls-3" d="m786.78,93.14v2.94c.41-.05.95-.07,1.49-.07,1.8,0,3.87.68,3.87,2.93,0,.92-.36,1.55-.92,2.02-.96.81-2.41.99-3.69.99-.86,0-1.67-.05-2.34-.13v-7.44h-2.58v-1.24h4.16Zm-.02,7.6c.32.05.67.09,1.19.09,1.31,0,2.61-.45,2.61-1.84,0-1.49-1.42-1.85-2.68-1.85-.4,0-.74.04-1.12.09v3.51Z"/>
    <path class="cls-3" d="m605.62,97.15c-.02-1.06.85-1.89,1.89-1.89s1.89.83,1.89,1.87-.83,1.89-1.89,1.89-1.89-.81-1.89-1.87Z"/>
    <path class="cls-3" d="m670.06,91.17c-.47-.29-1.19-.58-2.16-.58-1.06,0-1.87.52-1.87,1.33,0,.94.9,1.28,2.25,1.73,1.66.54,2.93,1.22,2.93,2.84,0,.94-.45,1.62-1.17,2.18.31.25.69.85.69,1.58,0,1.89-1.75,2.7-3.42,2.7-1.1,0-2.14-.25-2.83-.76l.43-1.03c.43.31,1.31.74,2.38.74,1.15,0,2.02-.52,2.02-1.48,0-.85-.52-1.3-2.2-1.87-1.86-.63-3.13-1.3-3.13-2.85,0-.68.36-1.49,1.31-2.11-.36-.29-.65-.9-.67-1.51,0-1.58,1.48-2.56,3.33-2.56,1.01,0,1.87.25,2.48.59l-.38,1.03Zm-2.9,6.07c.92.32,1.64.59,2.05.86.45-.32.69-.83.69-1.39,0-.68-.43-1.26-1.6-1.67-.72-.27-1.64-.58-2.21-.92-.58.41-.83.86-.83,1.4,0,.65.49,1.19,1.91,1.71Z"/>
    <path class="cls-3" d="m245.14,92.14l1.91,5.15c.2.58.41,1.26.56,1.78h.04c.16-.52.34-1.19.56-1.82l1.73-5.11h1.67l-2.38,6.21c-1.13,2.99-1.91,4.52-2.99,5.46-.77.68-1.55.95-1.94,1.03l-.4-1.33c.4-.13.92-.38,1.39-.77.43-.34.97-.95,1.33-1.76.07-.16.13-.29.13-.38s-.04-.22-.11-.41l-3.22-8.03h1.73Zm1.17-3.55c.04.77.41,1.37,1.15,1.37s1.13-.58,1.22-1.37h1.13c-.09,1.48-1.01,2.23-2.39,2.23-1.58,0-2.2-.99-2.27-2.23h1.15Z"/>
    <path class="cls-3" d="m214.68,41.88l.47-3.53h-1.48v-1.06h1.64l.34-2.61h-1.55v-1.06h1.71l.47-3.44h1.04l-.45,3.44h1.87l.47-3.44h1.06l-.45,3.44h1.48v1.06h-1.64l-.32,2.61h1.55v1.06h-1.71l-.47,3.53h-1.08l.47-3.53h-1.87l-.47,3.53h-1.08Zm3.58-4.59l.34-2.61h-1.87l-.34,2.61h1.87Z"/>
    <path class="cls-3" d="m40.23,33.77l-.43-4.77h2.17l-.44,4.77h-1.3Z"/>
    <path class="cls-3" d="m98.63,31.2c0,.63-.41,1.12-1.06,1.12s-1.06-.49-1.06-1.12.45-1.12,1.08-1.12,1.04.47,1.04,1.12Zm-1.93,11.24l.25-8.59h1.22l.27,8.59h-1.75Z"/>
    <path class="cls-3" d="m276.91,43.42v-1.82c-1.04-.02-2.12-.34-2.75-.79l.43-1.21c.65.43,1.58.77,2.59.77,1.28,0,2.14-.74,2.14-1.76s-.7-1.6-2.03-2.14c-1.84-.72-2.97-1.55-2.97-3.12s1.06-2.63,2.72-2.9v-1.82h1.12v1.75c1.08.04,1.82.32,2.34.63l-.45,1.19c-.38-.22-1.12-.61-2.27-.61-1.39,0-1.91.83-1.91,1.55,0,.94.67,1.4,2.23,2.05,1.85.76,2.79,1.69,2.79,3.3,0,1.42-.99,2.75-2.84,3.06v1.87h-1.13Z"/>
    <path class="cls-3" d="m393.78,31.57l3.8-3.8,3.8,3.8h-3.15v10.3h-1.3v-10.3h-3.15Z"/>
    <path class="cls-3" d="m461.1,41.88c-.34-.34-.67-.68-1.13-1.19-1.04.97-2.21,1.39-3.55,1.39-2.36,0-3.73-1.58-3.73-3.4,0-1.66.99-2.79,2.38-3.55v-.05c-.63-.79-1.01-1.67-1.01-2.54,0-1.48,1.06-2.99,3.08-2.99,1.51,0,2.68,1.01,2.68,2.57,0,1.28-.74,2.29-2.67,3.24v.05c1.03,1.19,2.18,2.52,2.95,3.38.56-.85.94-2.02,1.17-3.55h1.44c-.32,1.91-.85,3.42-1.75,4.48.65.68,1.28,1.37,2,2.14h-1.87Zm-1.91-2.09c-.72-.79-2.07-2.27-3.42-3.82-.65.41-1.57,1.19-1.57,2.47,0,1.39,1.03,2.45,2.48,2.45,1.04,0,1.93-.47,2.5-1.1Zm-3.69-7.4c0,.86.4,1.53.92,2.18,1.22-.7,2.02-1.35,2.02-2.38,0-.74-.41-1.57-1.4-1.57s-1.53.83-1.53,1.76Z"/>
    <path class="cls-3" d="m640.86,34.72v-3.15l3.8,3.8-3.8,3.8v-3.15h-10.3v-1.3h10.3Z"/>
    <path class="cls-3" d="m704.04,36.76v1.08h-16.92v-1.08h16.92Z"/>
    <path class="cls-3" d="m756.57,39.35l-1.37,2.2h-1.17l1.42-2.2h-2.59v-1.08h3.28l1.6-2.48h-4.88v-1.08h5.56l1.37-2.2h1.17l-1.42,2.2h2.61v1.08h-3.3l-1.58,2.48h4.88v1.08h-5.58Z"/>
    <path class="cls-3" d="m517.5,35.86c-.92.92-1.87,1.93-3.33,1.93s-2.59-1.12-2.59-2.66c0-1.42,1.15-2.66,2.74-2.66,1.33,0,2.32,1.06,3.19,1.93.92-.92,1.87-1.93,3.33-1.93,1.53,0,2.59,1.12,2.59,2.66,0,1.42-1.15,2.66-2.74,2.66-1.33,0-2.32-1.06-3.19-1.93Zm-.72-.74c-.7-.65-1.44-1.58-2.49-1.58-.9,0-1.58.74-1.58,1.58,0,.92.65,1.58,1.53,1.58,1.03,0,1.85-.88,2.54-1.58Zm5.51,0c0-.92-.65-1.58-1.53-1.58-1.03,0-1.86.88-2.54,1.58.7.65,1.44,1.58,2.48,1.58.9,0,1.58-.74,1.58-1.58Z"/>
    <path class="cls-3" d="m570.41,35.37l3.8-3.8v3.15h10.3v1.3h-10.3v3.15l-3.8-3.8Z"/>
    <path class="cls-3" d="m160.28,41.03c-.99.52-2,.72-3.2.72-2.95,0-5.46-2.16-5.46-5.62,0-3.71,2.57-6.91,6.57-6.91,3.13,0,5.24,2.2,5.24,5.2,0,2.7-1.51,4.29-3.21,4.29-.72,0-1.39-.49-1.33-1.58h-.07c-.63,1.06-1.46,1.58-2.54,1.58s-1.94-.85-1.94-2.27c0-2.23,1.76-4.27,4.27-4.27.77,0,1.46.16,1.93.38l-.61,3.26c-.27,1.37-.05,2,.54,2.02.92.02,1.94-1.21,1.94-3.29,0-2.61-1.57-4.48-4.36-4.48-2.94,0-5.4,2.32-5.4,5.98,0,3.01,1.96,4.86,4.63,4.86,1.03,0,1.98-.22,2.72-.63l.29.77Zm-.99-7.78c-.18-.05-.49-.13-.9-.13-1.58,0-2.86,1.49-2.86,3.24,0,.79.4,1.37,1.19,1.37,1.04,0,2-1.33,2.2-2.45l.38-2.03Z"/>
  </g>
  <g id="alt_shift" data-name="alt+shift">
    <path class="cls-2" d="m236.45,194.69c-.01-.59.47-1.05,1.05-1.05s1.05.46,1.05,1.04-.46,1.05-1.05,1.05-1.05-.45-1.05-1.04Z"/>
    <path class="cls-4" d="m596.86,198.34v1.46c0,1.77-.58,2.8-1.73,3.09v-.65c.41-.22.62-.8.62-1.75v-.2h-.84v-1.95h1.95Zm1.3,0h1.95v1.46c0,1.77-.58,2.8-1.73,3.09v-.65c.41-.22.62-.8.62-1.75v-.2h-.84v-1.95Z"/>
    <path class="cls-4" d="m656.54,186.42v.65c-.41.22-.62.8-.62,1.75v.2h.84v1.95h-1.95v-1.46c0-1.78.58-2.81,1.73-3.09Zm1.52,3.09c0-1.78.58-2.81,1.73-3.09v.65c-.41.22-.62.8-.62,1.75v.2h.84v1.95h-1.95v-1.46Z"/>
    <path class="cls-4" d="m718.79,193.16l.05.47c.11.97-.23,2-1.13,3.08-.81.97-1.24,1.64-1.24,2.45,0,.92.56,1.53,1.71,1.53.63,0,1.35-.2,1.82-.56l.43,1.15c-.61.41-1.64.72-2.59.72-2.05,0-3.01-1.28-3.01-2.65,0-1.22.68-2.09,1.57-3.1.77-.96,1.06-1.71,1.01-2.63l-.02-.47h1.4Zm.38-2.56c0,.63-.41,1.13-1.06,1.13s-1.06-.5-1.06-1.13.43-1.12,1.06-1.12,1.06.47,1.06,1.12Z"/>
    <path class="cls-4" d="m297.63,200.55v-1.82c-1.15-.14-1.96-.56-2.61-1.26-.61-.68-1.01-1.73-1.01-3.04,0-2.32,1.42-4.09,3.62-4.45v-1.8h1.12v1.77c.81,0,1.55.23,1.96.45l-.36,1.21c-.36-.22-.97-.45-1.87-.45-1.78,0-2.88,1.44-2.88,3.2,0,2,1.22,3.17,2.81,3.17.99,0,1.62-.25,2.05-.45l.29,1.13c-.36.2-1.12.49-2,.52v1.82h-1.12Z"/>
    <path class="cls-4" d="m196.58,127.76h1.8v4.81c.07-.01.17-.03.29-.04.12-.02.25-.03.41-.04.15-.01.31-.02.47-.04.16-.01.32-.02.48-.02.62,0,1.23.06,1.82.18s1.11.33,1.57.62c.46.29.82.69,1.09,1.18.27.49.4,1.11.4,1.85s-.13,1.35-.39,1.89c-.26.54-.61.98-1.07,1.33s-1,.61-1.64.78c-.64.17-1.34.26-2.11.26-.18,0-.4,0-.65,0s-.52-.02-.8-.04c-.28-.02-.57-.05-.85-.09s-.56-.08-.81-.14v-12.47Zm3.26,11.18c.44,0,.86-.05,1.24-.16.38-.11.72-.27,1-.48.28-.21.5-.48.67-.8s.24-.69.24-1.12c0-.47-.09-.86-.27-1.17-.18-.31-.42-.55-.71-.73s-.64-.3-1.03-.37c-.39-.07-.8-.11-1.23-.11-.23,0-.48.02-.76.05-.28.04-.48.07-.61.11v4.67c.17.05.38.08.62.09.25.01.52.02.84.02Zm6.97-11.18h1.8v12.6h-1.8v-12.6Z"/>
    <path class="cls-4" d="m740.63,133.52h5.65c-.2-2.34-1.66-4.2-4.16-4.2-.97,0-1.82.27-2.59.61l-.38-1.21c.86-.38,1.91-.7,3.06-.7,3.82,0,5.76,2.75,5.76,6.28,0,3.98-2.63,6.25-5.85,6.25-1.21,0-2.3-.23-3.17-.63l.34-1.24c.7.32,1.71.56,2.61.56,2.68,0,4.29-1.94,4.39-4.47h-5.67v-1.26Z"/>
    <path class="cls-4" d="m807.27,134.67h-4.72v4.38h5.26v1.31h-6.82v-12.14h6.55v1.31h-4.99v3.83h4.72v1.3Zm-5.62-8.21c0-.49.4-.9.9-.9s.86.4.86.9-.34.92-.86.92-.9-.41-.9-.92Zm3.35,0c0-.49.38-.9.88-.9s.88.4.88.9-.34.92-.88.92-.88-.41-.88-.92Z"/>
    <path class="cls-4" d="m266.77,133.93c0,3.22-2.23,4.63-4.34,4.63-2.36,0-4.18-1.73-4.18-4.48,0-2.92,1.91-4.63,4.32-4.63s4.2,1.82,4.2,4.48Zm-6.91.09c0,1.91,1.1,3.35,2.65,3.35s2.65-1.42,2.65-3.39c0-1.48-.74-3.35-2.61-3.35s-2.68,1.73-2.68,3.38Z"/>
    <path class="cls-4" d="m490.19,68.22l.29-2.2h1.15l-.2,3.51h-4.93v10.82h-1.57v-12.14h5.26Z"/>
    <path class="cls-4" d="m786.55,68.22v4.54c.36-.05.99-.09,1.46-.09,2.34,0,4.55,1.13,4.55,3.78,0,1.13-.36,1.98-.94,2.59-1.01,1.06-2.61,1.42-4.23,1.42-1.06,0-1.89-.07-2.41-.14v-10.8h-3.12v-1.3h4.68Zm0,10.93c.34.07.74.09,1.24.09,1.75,0,3.12-.88,3.12-2.72s-1.51-2.61-3.1-2.61c-.41,0-.88.04-1.26.09v5.15Z"/>
    <path class="cls-4" d="m662.75,69.01c1.34-1.33,2.95-2,4.82-2s3.5.67,4.83,2,2,2.94,2,4.82-.67,3.52-2,4.85-2.97,2-4.9,2-3.43-.67-4.76-2.02-1.99-2.95-1.99-4.81.67-3.5,2-4.83Zm.69,8.96c1.14,1.15,2.49,1.73,4.06,1.73,1.91,0,3.43-.7,4.55-2.1.92-1.14,1.38-2.39,1.38-3.76,0-1.61-.57-2.99-1.71-4.13s-2.52-1.71-4.14-1.71-2.99.57-4.13,1.71-1.72,2.53-1.72,4.14.57,2.97,1.71,4.12Zm2.23-.15v-7.81h2.28c.47,0,.88.04,1.21.11s.61.2.82.36.37.38.46.64.15.57.15.94c0,.42-.07.8-.22,1.12s-.35.61-.62.83-.61.4-1,.52-.83.18-1.33.18h-.54v3.09h-1.22Zm1.22-3.99h.41c1.33,0,1.99-.55,1.99-1.66,0-.84-.58-1.27-1.74-1.27h-.67v2.93Z"/>
    <path class="cls-4" d="m605.37,76.63v-4.26h4.26v4.26h-4.26Z"/>
    <path class="cls-4" d="m244.62,68.22l2.41,5.17c.31.72.59,1.42.88,2.14h.04c.22-.63.45-1.33.76-2.2l1.89-5.11h1.66l-2.54,6.23c-.67,1.62-1.42,3.48-2.27,4.61-.79.99-1.67,1.49-2.75,1.49-.4,0-.68-.04-.88-.11l.16-1.28c.13.04.31.05.58.05,1.26-.02,2-1.22,2.38-2.09.13-.27.09-.45-.05-.74l-4.03-8.17h1.78Zm1.78-2.57c.07.56.25,1.12,1.1,1.12s1.03-.52,1.1-1.12h1.21c-.09,1.21-.81,1.94-2.34,1.94s-2.18-.76-2.27-1.94h1.21Z"/>
    <path class="cls-4" d="m97.3,15.4v-5.91h-.04l-1.3.61-.2-.94,1.69-.79h1.1v7.02h-1.26Z"/>
    <path class="cls-4" d="m281.91,18.82c-.56.38-1.49.76-2.68.76-1.46,0-2.75-.56-3.66-1.6-.68-.76-1.13-1.8-1.3-3.1h-1.12v-.88h1.03v-.27c0-.29.02-.56.04-.81h-1.06v-.9h1.19c.22-1.26.76-2.3,1.48-3.04.92-.95,2.09-1.49,3.56-1.49,1.06,0,1.89.31,2.4.58l-.36,1.19c-.45-.27-1.21-.5-2.02-.5-.97,0-1.76.34-2.38.99-.54.52-.9,1.33-1.08,2.29h5.02v.9h-5.19c-.02.23-.04.5-.04.76v.32h5.22v.88h-5.1c.14,1.04.5,1.82.99,2.36.67.7,1.57,1.04,2.54,1.04s1.78-.36,2.2-.59l.31,1.13Z"/>
    <path class="cls-4" d="m41.66,11.1h-1.3l-2.82-2.82h2l2.12,2.82Z"/>
    <path class="cls-4" d="m215.24,8.86c.41-.27,1.19-.58,2.07-.58,1.55,0,2.2.83,2.2,1.71,0,.72-.52,1.31-1.39,1.62v.04c.99.13,1.67.83,1.67,1.73,0,1.12-1.01,2.11-2.84,2.11-.86,0-1.66-.22-2.05-.49l.32-.9c.29.18.99.47,1.67.47,1.1,0,1.58-.65,1.57-1.21,0-.92-.95-1.28-1.91-1.28h-.49v-.83h.5c.67,0,1.62-.31,1.64-1.13,0-.45-.32-.9-1.13-.9-.65,0-1.24.29-1.53.49l-.31-.85Z"/>
    <path class="cls-4" d="m393.48,15.11v-1.08h9.29v1.08h-9.29Zm3.69-3.69c0-.59.4-1.01.97-1.01s.94.41.94,1.01c0,.56-.36.99-.95.99s-.95-.43-.95-.99Zm0,6.32c0-.59.4-1.01.97-1.01s.94.41.94,1.01c0,.56-.36.99-.95.99s-.95-.43-.95-.99Z"/>
    <path class="cls-4" d="m638.58,8.02v14.37h-3.29v-.99h2.07v-12.39h-2.07v-.99h3.29Z"/>
    <path class="cls-4" d="m699.53,15.26v1.08h-7.92v-1.08h7.92Z"/>
    <path class="cls-4" d="m758.08,10.08v3.51h4.07v1.08h-4.07v3.6h-1.15v-3.6h-4.07v-1.08h4.07v-3.51h1.15Zm4.07,9.22v1.08h-9.29v-1.08h9.29Z"/>
    <path class="cls-4" d="m523.4,11.62c-.58.72-1.62,1.4-2.74,1.4-1.04,0-1.73-.41-2.3-.67-.54-.22-1.15-.61-2.05-.61-.83,0-1.64.56-2.12,1.06l-.63-.76c.58-.68,1.62-1.39,2.75-1.39,1.06,0,1.71.41,2.3.65.54.23,1.13.61,2.04.61.83,0,1.64-.58,2.09-1.04l.67.74Zm.07,3.55c-.58.74-1.64,1.42-2.75,1.42-1.03,0-1.69-.41-2.29-.65-.54-.22-1.15-.61-2.07-.61-.79,0-1.62.54-2.11,1.06l-.61-.77c.56-.68,1.62-1.37,2.74-1.37s1.71.4,2.3.65c.54.22,1.15.61,2.04.61s1.66-.54,2.11-1.06l.65.72Z"/>
    <path class="cls-4" d="m576.49,22.39v-14.35h3.29v.99h-2.07v12.37h2.07v.99h-3.29Z"/>
    <path class="cls-4" d="m157.35,14.73l1.13-1.04c1.49-1.37,2.27-2.21,2.27-3.13,0-.68-.43-1.24-1.37-1.24-.63,0-1.17.31-1.51.56l-.38-.83c.49-.4,1.3-.76,2.2-.76,1.69,0,2.4,1.08,2.4,2.03,0,1.37-1.03,2.36-2.4,3.55l-.56.5v.04h3.08v.99h-4.86v-.67Z"/>
    <rect class="cls-4" x="256.29" y="133.67" width="12.35" height="1" transform="translate(-17.99 224.91) rotate(-45)"/>
  </g>
</svg>