<?xml version="1.0" encoding="UTF-8"?>
<svg id="Layer_2" data-name="Layer 2" xmlns="http://www.w3.org/2000/svg" viewBox="0 0 848.6 278.8">
  <defs>
    <style>
      .cls-1 {
        fill: #39c;
      }

      .cls-2 {
        fill: #393;
      }

      .cls-3 {
        fill: #2ab0c6;
      }

      .cls-4 {
        fill: #ccc;
      }
    </style>
  </defs>
  <g id="labels">
    <g>
      <path class="cls-4" d="m797.45,36.4c.02-.4.05-.98.05-1.5v-7.02h1.04v3.65h.02c.37-.65,1.04-1.07,1.98-1.07,1.44,0,2.46,1.2,2.45,2.96,0,2.08-1.31,3.11-2.6,3.11-.84,0-1.51-.32-1.94-1.09h-.04l-.05.96h-.91Zm1.09-2.33c0,.13.02.26.05.38.2.73.82,1.24,1.58,1.24,1.1,0,1.76-.9,1.76-2.23,0-1.16-.6-2.16-1.73-2.16-.72,0-1.39.49-1.61,1.3-.02.12-.06.26-.06.43v1.04Z"/>
      <path class="cls-4" d="m807.54,36.4l-.08-.73h-.04c-.32.46-.95.86-1.78.86-1.17,0-1.77-.83-1.77-1.67,0-1.4,1.25-2.17,3.49-2.16v-.12c0-.48-.13-1.34-1.32-1.34-.54,0-1.1.17-1.51.43l-.24-.7c.48-.31,1.17-.52,1.91-.52,1.78,0,2.21,1.21,2.21,2.37v2.17c0,.5.02,1,.1,1.39h-.96Zm-.16-2.96c-1.15-.02-2.46.18-2.46,1.31,0,.68.46,1.01,1,1.01.76,0,1.24-.48,1.4-.97.04-.11.06-.23.06-.34v-1.01Z"/>
      <path class="cls-4" d="m814.25,36.18c-.28.14-.89.34-1.67.34-1.75,0-2.89-1.19-2.89-2.96s1.22-3.08,3.12-3.08c.62,0,1.17.16,1.46.3l-.24.82c-.25-.14-.65-.28-1.22-.28-1.33,0-2.05.98-2.05,2.19,0,1.34.86,2.17,2.01,2.17.6,0,1-.16,1.29-.29l.18.79Z"/>
      <path class="cls-4" d="m816.53,33.25h.02c.14-.2.35-.46.52-.66l1.7-2h1.27l-2.24,2.39,2.55,3.42h-1.28l-2-2.78-.54.6v2.18h-1.04v-8.52h1.04v5.37Z"/>
      <path class="cls-4" d="m820.97,35.32c.31.2.86.42,1.39.42.77,0,1.13-.38,1.13-.86,0-.5-.3-.78-1.08-1.07-1.04-.37-1.54-.95-1.54-1.64,0-.94.76-1.7,2-1.7.59,0,1.1.17,1.43.36l-.26.77c-.23-.14-.65-.34-1.19-.34-.62,0-.97.36-.97.79,0,.48.35.7,1.1.98,1.01.38,1.52.89,1.52,1.75,0,1.02-.79,1.74-2.17,1.74-.64,0-1.22-.16-1.63-.4l.26-.8Z"/>
      <path class="cls-4" d="m825.87,32.49c0-.74-.02-1.34-.05-1.9h.95l.05,1h.02c.43-.71,1.12-1.13,2.06-1.13,1.4,0,2.46,1.19,2.46,2.95,0,2.09-1.27,3.12-2.64,3.12-.77,0-1.44-.34-1.79-.91h-.02v3.15h-1.04v-6.28Zm1.04,1.55c0,.16.02.3.05.43.19.73.83,1.24,1.58,1.24,1.12,0,1.76-.91,1.76-2.24,0-1.16-.61-2.16-1.73-2.16-.72,0-1.39.52-1.59,1.31-.04.13-.07.29-.07.43v1Z"/>
      <path class="cls-4" d="m835.91,36.4l-.08-.73h-.04c-.32.46-.95.86-1.78.86-1.17,0-1.77-.83-1.77-1.67,0-1.4,1.25-2.17,3.49-2.16v-.12c0-.48-.13-1.34-1.32-1.34-.54,0-1.1.17-1.51.43l-.24-.7c.48-.31,1.17-.52,1.91-.52,1.78,0,2.21,1.21,2.21,2.37v2.17c0,.5.02,1,.1,1.39h-.96Zm-.16-2.96c-1.15-.02-2.46.18-2.46,1.31,0,.68.46,1.01,1,1.01.76,0,1.24-.48,1.4-.97.04-.11.06-.23.06-.34v-1.01Z"/>
      <path class="cls-4" d="m842.62,36.18c-.28.14-.89.34-1.67.34-1.75,0-2.89-1.19-2.89-2.96s1.22-3.08,3.12-3.08c.62,0,1.17.16,1.46.3l-.24.82c-.25-.14-.65-.28-1.22-.28-1.33,0-2.05.98-2.05,2.19,0,1.34.86,2.17,2.01,2.17.6,0,1-.16,1.29-.29l.18.79Z"/>
      <path class="cls-4" d="m844.37,33.69c.02,1.43.94,2.01,1.99,2.01.76,0,1.21-.13,1.61-.3l.18.76c-.37.17-1.01.36-1.93.36-1.79,0-2.85-1.18-2.85-2.93s1.03-3.13,2.72-3.13c1.89,0,2.4,1.67,2.4,2.73,0,.22-.02.38-.04.49h-4.08Zm3.09-.76c.01-.67-.28-1.71-1.46-1.71-1.07,0-1.54.98-1.62,1.71h3.08Z"/>
    </g>
    <g>
      <path class="cls-1" d="m827.82,215.26c.31.21.86.42,1.39.42.77,0,1.13-.38,1.13-.86s-.3-.78-1.08-1.07c-1.04-.37-1.54-.95-1.54-1.64,0-.93.76-1.7,2-1.7.59,0,1.1.17,1.43.36l-.26.77c-.23-.14-.65-.33-1.19-.33-.62,0-.97.36-.97.79,0,.48.35.7,1.1.98,1.01.38,1.52.89,1.52,1.75,0,1.02-.79,1.74-2.17,1.74-.64,0-1.22-.16-1.63-.4l.26-.8Z"/>
      <path class="cls-1" d="m832.72,207.82h1.05v3.62h.02c.17-.3.43-.56.76-.74.31-.18.68-.3,1.08-.3.78,0,2.03.48,2.03,2.48v3.45h-1.05v-3.33c0-.94-.35-1.73-1.34-1.73-.68,0-1.22.48-1.42,1.05-.06.14-.07.3-.07.5v3.5h-1.05v-8.52Z"/>
      <path class="cls-1" d="m840.55,208.9c.01.36-.25.65-.67.65-.37,0-.64-.29-.64-.65s.28-.66.66-.66.65.29.65.66Zm-1.17,7.44v-5.8h1.05v5.8h-1.05Z"/>
      <path class="cls-1" d="m842.29,216.34v-5h-.82v-.8h.82v-.28c0-.82.18-1.56.67-2.03.4-.38.92-.54,1.42-.54.37,0,.7.08.9.17l-.14.82c-.16-.07-.37-.13-.67-.13-.9,0-1.13.79-1.13,1.68v.31h1.4v.8h-1.4v5h-1.04Z"/>
      <path class="cls-1" d="m847.09,208.87v1.67h1.51v.8h-1.51v3.13c0,.72.2,1.13.79,1.13.28,0,.48-.04.61-.07l.05.79c-.2.08-.53.14-.94.14-.49,0-.89-.16-1.14-.44-.3-.31-.41-.83-.41-1.51v-3.17h-.9v-.8h.9v-1.39l1.03-.28Z"/>
    </g>
    <g id="right_ctrl" data-name="right ctrl">
      <path class="cls-4" d="m837.62,276.08c-.28.14-.89.34-1.67.34-1.75,0-2.89-1.19-2.89-2.96s1.22-3.08,3.12-3.08c.62,0,1.17.16,1.46.3l-.24.82c-.25-.14-.65-.28-1.22-.28-1.33,0-2.05.98-2.05,2.19,0,1.34.86,2.17,2.01,2.17.6,0,1-.16,1.29-.29l.18.79Z"/>
      <path class="cls-4" d="m840.29,268.82v1.67h1.51v.8h-1.51v3.13c0,.72.2,1.13.79,1.13.28,0,.48-.04.61-.07l.05.79c-.2.08-.53.14-.94.14-.49,0-.89-.16-1.14-.44-.3-.31-.41-.83-.41-1.51v-3.17h-.9v-.8h.9v-1.39l1.03-.28Z"/>
      <path class="cls-4" d="m842.99,272.3c0-.68-.01-1.27-.05-1.81h.92l.04,1.14h.05c.26-.78.9-1.27,1.61-1.27.12,0,.2.01.3.04v1c-.11-.02-.22-.04-.36-.04-.74,0-1.27.56-1.42,1.36-.02.14-.05.31-.05.49v3.09h-1.04v-3.99Z"/>
      <path class="cls-4" d="m846.96,267.78h1.05v8.52h-1.05v-8.52Z"/>
    </g>
    <g id="menu">
      <path class="cls-4" d="m740.69,272.06c0-.6-.01-1.09-.05-1.57h.92l.05.94h.04c.32-.55.86-1.07,1.82-1.07.79,0,1.39.48,1.64,1.16h.02c.18-.32.41-.58.65-.76.35-.26.73-.41,1.28-.41.77,0,1.91.5,1.91,2.52v3.42h-1.03v-3.29c0-1.12-.41-1.79-1.26-1.79-.6,0-1.07.44-1.25.96-.05.14-.08.34-.08.53v3.59h-1.03v-3.48c0-.92-.41-1.59-1.21-1.59-.66,0-1.14.53-1.31,1.06-.06.16-.08.34-.08.52v3.5h-1.03v-4.23Z"/>
      <path class="cls-4" d="m751.28,273.58c.02,1.43.94,2.02,1.99,2.02.76,0,1.21-.13,1.61-.3l.18.76c-.37.17-1.01.36-1.93.36-1.79,0-2.85-1.18-2.85-2.93s1.03-3.13,2.72-3.13c1.89,0,2.4,1.67,2.4,2.73,0,.22-.02.38-.04.49h-4.08Zm3.09-.76c.01-.67-.28-1.71-1.46-1.71-1.07,0-1.54.98-1.62,1.71h3.08Z"/>
      <path class="cls-4" d="m756.71,272.06c0-.6-.01-1.09-.05-1.57h.94l.06.96h.02c.29-.55.96-1.09,1.92-1.09.8,0,2.05.48,2.05,2.47v3.47h-1.05v-3.35c0-.94-.35-1.71-1.34-1.71-.7,0-1.24.49-1.42,1.08-.05.13-.07.31-.07.49v3.49h-1.05v-4.23Z"/>
      <path class="cls-4" d="m768.22,274.71c0,.6.01,1.13.05,1.58h-.94l-.06-.95h-.02c-.28.47-.89,1.08-1.92,1.08-.91,0-2-.5-2-2.54v-3.39h1.05v3.21c0,1.1.34,1.85,1.3,1.85.71,0,1.2-.49,1.39-.96.06-.16.1-.35.1-.54v-3.56h1.05v4.22Z"/>
    </g>
    <g>
      <path class="cls-2" d="m667.63,276.29l-.08-.73h-.04c-.32.46-.95.86-1.78.86-1.17,0-1.77-.83-1.77-1.67,0-1.4,1.25-2.17,3.49-2.16v-.12c0-.48-.13-1.34-1.32-1.34-.54,0-1.1.17-1.51.43l-.24-.7c.48-.31,1.17-.52,1.91-.52,1.78,0,2.21,1.21,2.21,2.37v2.17c0,.5.02.99.1,1.39h-.96Zm-.16-2.96c-1.15-.02-2.46.18-2.46,1.31,0,.68.46,1.01,1,1.01.76,0,1.24-.48,1.4-.97.04-.11.06-.23.06-.34v-1.01Z"/>
      <path class="cls-2" d="m670.2,267.78h1.05v8.52h-1.05v-8.52Z"/>
      <path class="cls-2" d="m674.3,268.82v1.67h1.51v.8h-1.51v3.13c0,.72.2,1.13.79,1.13.28,0,.48-.04.61-.07l.05.79c-.2.08-.53.14-.94.14-.49,0-.89-.16-1.14-.44-.3-.31-.41-.83-.41-1.51v-3.17h-.9v-.8h.9v-1.39l1.03-.28Z"/>
      <path class="cls-2" d="m684.55,270.49c-.02.42-.05.89-.05,1.6v3.37c0,1.33-.26,2.15-.83,2.65-.56.53-1.38.7-2.11.7s-1.46-.17-1.93-.48l.26-.8c.38.24.98.46,1.7.46,1.08,0,1.87-.56,1.87-2.03v-.65h-.02c-.32.54-.95.97-1.85.97-1.44,0-2.47-1.22-2.47-2.83,0-1.97,1.28-3.08,2.61-3.08,1.01,0,1.56.53,1.81,1.01h.02l.05-.88h.92Zm-1.09,2.29c0-.18-.01-.34-.06-.48-.19-.61-.71-1.12-1.48-1.12-1.01,0-1.73.85-1.73,2.2,0,1.14.58,2.09,1.71,2.09.65,0,1.24-.41,1.46-1.08.06-.18.08-.38.08-.56v-1.04Z"/>
      <path class="cls-2" d="m686.18,272.3c0-.68-.01-1.27-.05-1.81h.92l.04,1.14h.05c.26-.78.9-1.27,1.61-1.27.12,0,.2.01.3.04v1c-.11-.02-.22-.04-.36-.04-.74,0-1.27.56-1.42,1.36-.02.14-.05.31-.05.49v3.09h-1.04v-3.99Z"/>
    </g>
    <g id="left_alt" data-name="left alt">
      <path class="cls-4" d="m174.07,276.29l-.08-.73h-.04c-.32.46-.95.86-1.78.86-1.17,0-1.77-.83-1.77-1.67,0-1.4,1.25-2.17,3.49-2.16v-.12c0-.48-.13-1.34-1.32-1.34-.54,0-1.1.17-1.51.43l-.24-.7c.48-.31,1.17-.52,1.91-.52,1.78,0,2.21,1.21,2.21,2.37v2.17c0,.5.02.99.1,1.39h-.96Zm-.16-2.96c-1.15-.02-2.46.18-2.46,1.31,0,.68.46,1.01,1,1.01.76,0,1.24-.48,1.4-.97.04-.11.06-.23.06-.34v-1.01Z"/>
      <path class="cls-4" d="m176.64,267.78h1.05v8.52h-1.05v-8.52Z"/>
      <path class="cls-4" d="m180.74,268.82v1.67h1.51v.8h-1.51v3.13c0,.72.2,1.13.79,1.13.28,0,.48-.04.61-.07l.05.79c-.2.08-.53.14-.94.14-.49,0-.89-.16-1.14-.44-.3-.31-.41-.83-.41-1.51v-3.17h-.9v-.8h.9v-1.39l1.03-.28Z"/>
    </g>
    <g id="win">
      <path class="cls-4" d="m91.52,270.49l.77,2.95c.17.65.32,1.25.43,1.85h.04c.13-.59.32-1.21.52-1.83l.95-2.96h.89l.9,2.9c.22.7.38,1.31.52,1.89h.04c.1-.59.25-1.2.44-1.88l.83-2.91h1.04l-1.87,5.8h-.96l-.89-2.77c-.2-.65-.37-1.22-.52-1.91h-.02c-.14.7-.32,1.29-.53,1.92l-.94,2.76h-.96l-1.75-5.8h1.08Z"/>
      <path class="cls-4" d="m101.11,268.86c.01.36-.25.65-.67.65-.37,0-.64-.29-.64-.65s.28-.66.66-.66.65.29.65.66Zm-1.17,7.44v-5.8h1.05v5.8h-1.05Z"/>
      <path class="cls-4" d="m102.74,272.06c0-.6-.01-1.09-.05-1.57h.94l.06.96h.02c.29-.55.96-1.09,1.92-1.09.8,0,2.05.48,2.05,2.47v3.47h-1.05v-3.35c0-.94-.35-1.71-1.34-1.71-.7,0-1.24.49-1.42,1.08-.05.13-.07.31-.07.49v3.49h-1.05v-4.23Z"/>
    </g>
    <g id="left_ctrl" data-name="left ctrl">
      <path class="cls-4" d="m4.8,276.08c-.28.14-.89.34-1.67.34-1.75,0-2.89-1.19-2.89-2.96s1.22-3.08,3.12-3.08c.62,0,1.17.16,1.46.3l-.24.82c-.25-.14-.65-.28-1.22-.28-1.33,0-2.05.98-2.05,2.19,0,1.34.86,2.17,2.01,2.17.6,0,1-.16,1.29-.29l.18.79Z"/>
      <path class="cls-4" d="m7.46,268.82v1.67h1.51v.8h-1.51v3.13c0,.72.2,1.13.79,1.13.28,0,.48-.04.61-.07l.05.79c-.2.08-.53.14-.94.14-.49,0-.89-.16-1.14-.44-.3-.31-.41-.83-.41-1.51v-3.17h-.9v-.8h.9v-1.39l1.03-.28Z"/>
      <path class="cls-4" d="m10.16,272.3c0-.68-.01-1.27-.05-1.81h.92l.04,1.14h.05c.26-.78.9-1.27,1.61-1.27.12,0,.2.01.3.04v1c-.11-.02-.22-.04-.36-.04-.74,0-1.27.56-1.42,1.36-.02.14-.05.31-.05.49v3.09h-1.04v-3.99Z"/>
      <path class="cls-4" d="m14.14,267.78h1.05v8.52h-1.05v-8.52Z"/>
    </g>
    <g>
      <path class="cls-1" d="m.52,215.26c.31.21.86.42,1.39.42.77,0,1.13-.38,1.13-.86s-.3-.78-1.08-1.07c-1.04-.37-1.54-.95-1.54-1.64,0-.93.76-1.7,2-1.7.59,0,1.1.17,1.43.36l-.26.77c-.23-.14-.65-.33-1.19-.33-.62,0-.97.36-.97.79,0,.48.35.7,1.1.98,1.01.38,1.52.89,1.52,1.75,0,1.02-.79,1.74-2.17,1.74-.64,0-1.22-.16-1.63-.4l.26-.8Z"/>
      <path class="cls-1" d="m5.41,207.82h1.05v3.62h.02c.17-.3.43-.56.76-.74.31-.18.68-.3,1.08-.3.78,0,2.03.48,2.03,2.48v3.45h-1.05v-3.33c0-.94-.35-1.73-1.34-1.73-.68,0-1.22.48-1.42,1.05-.06.14-.07.3-.07.5v3.5h-1.05v-8.52Z"/>
      <path class="cls-1" d="m13.25,208.9c.01.36-.25.65-.67.65-.37,0-.64-.29-.64-.65s.28-.66.66-.66.65.29.65.66Zm-1.17,7.44v-5.8h1.05v5.8h-1.05Z"/>
      <path class="cls-1" d="m14.99,216.34v-5h-.82v-.8h.82v-.28c0-.82.18-1.56.67-2.03.4-.38.92-.54,1.42-.54.37,0,.7.08.9.17l-.14.82c-.16-.07-.37-.13-.67-.13-.9,0-1.13.79-1.13,1.68v.31h1.4v.8h-1.4v5h-1.04Z"/>
      <path class="cls-1" d="m19.79,208.87v1.67h1.51v.8h-1.51v3.13c0,.72.2,1.13.79,1.13.28,0,.48-.04.61-.07l.05.79c-.2.08-.53.14-.94.14-.49,0-.89-.16-1.14-.44-.3-.31-.41-.83-.41-1.51v-3.17h-.9v-.8h.9v-1.39l1.03-.28Z"/>
    </g>
    <g>
      <path class="cls-4" d="m4.8,156.25c-.28.14-.89.34-1.67.34-1.75,0-2.89-1.19-2.89-2.96s1.22-3.08,3.12-3.08c.62,0,1.17.16,1.46.3l-.24.82c-.25-.14-.65-.28-1.22-.28-1.33,0-2.05.98-2.05,2.19,0,1.34.86,2.17,2.01,2.17.6,0,1-.16,1.29-.29l.18.79Z"/>
      <path class="cls-4" d="m9.25,156.46l-.08-.73h-.04c-.32.46-.95.86-1.78.86-1.17,0-1.77-.83-1.77-1.67,0-1.4,1.25-2.17,3.49-2.16v-.12c0-.48-.13-1.34-1.32-1.34-.54,0-1.1.17-1.51.43l-.24-.7c.48-.31,1.17-.52,1.91-.52,1.78,0,2.21,1.21,2.21,2.37v2.17c0,.5.02,1,.1,1.39h-.96Zm-.16-2.96c-1.15-.02-2.46.18-2.46,1.31,0,.68.46,1.01,1,1.01.76,0,1.24-.48,1.4-.97.04-.11.06-.23.06-.34v-1.01Z"/>
      <path class="cls-4" d="m11.82,152.56c0-.74-.02-1.34-.05-1.9h.95l.05,1h.02c.43-.71,1.12-1.13,2.06-1.13,1.4,0,2.46,1.19,2.46,2.95,0,2.09-1.27,3.12-2.64,3.12-.77,0-1.44-.34-1.79-.91h-.02v3.15h-1.04v-6.28Zm1.04,1.55c0,.16.02.3.05.43.19.73.83,1.23,1.58,1.23,1.12,0,1.76-.91,1.76-2.24,0-1.16-.61-2.16-1.73-2.16-.72,0-1.39.52-1.59,1.31-.04.13-.07.29-.07.43v1Z"/>
      <path class="cls-4" d="m18.5,155.39c.31.2.86.42,1.39.42.77,0,1.13-.38,1.13-.86,0-.5-.3-.78-1.08-1.07-1.04-.37-1.54-.95-1.54-1.64,0-.94.76-1.7,2-1.7.59,0,1.1.17,1.43.36l-.26.77c-.23-.14-.65-.34-1.19-.34-.62,0-.97.36-.97.79,0,.48.35.7,1.1.98,1.01.38,1.52.89,1.52,1.75,0,1.02-.79,1.74-2.17,1.74-.64,0-1.22-.16-1.63-.4l.26-.8Z"/>
      <path class="cls-4" d="m25.94,147.95h1.05v8.52h-1.05v-8.52Z"/>
      <path class="cls-4" d="m34.03,153.51c0,2.15-1.49,3.08-2.89,3.08-1.57,0-2.78-1.15-2.78-2.99,0-1.94,1.27-3.08,2.88-3.08s2.79,1.21,2.79,2.99Zm-4.61.06c0,1.27.73,2.23,1.76,2.23s1.76-.95,1.76-2.26c0-.98-.49-2.23-1.74-2.23s-1.79,1.15-1.79,2.25Z"/>
      <path class="cls-4" d="m39.5,156.25c-.28.14-.89.34-1.67.34-1.75,0-2.89-1.19-2.89-2.96s1.22-3.08,3.12-3.08c.62,0,1.17.16,1.46.3l-.24.82c-.25-.14-.65-.28-1.22-.28-1.33,0-2.05.98-2.05,2.19,0,1.34.86,2.17,2.01,2.17.6,0,1-.16,1.29-.29l.18.79Z"/>
      <path class="cls-4" d="m41.78,153.32h.02c.14-.2.35-.46.52-.66l1.7-2h1.27l-2.24,2.39,2.55,3.42h-1.28l-2-2.78-.54.6v2.18h-1.04v-8.52h1.04v5.37Z"/>
    </g>
    <g>
      <path class="cls-4" d="m1.93,88.87v1.67h1.51v.8h-1.51v3.13c0,.72.2,1.13.79,1.13.28,0,.48-.04.61-.07l.05.79c-.2.08-.53.14-.94.14-.49,0-.89-.16-1.14-.44-.3-.31-.41-.83-.41-1.51v-3.17h-.9v-.8h.9v-1.39l1.03-.28Z"/>
      <path class="cls-4" d="m7.85,96.34l-.08-.73h-.04c-.32.46-.95.86-1.78.86-1.17,0-1.77-.83-1.77-1.67,0-1.4,1.25-2.17,3.49-2.16v-.12c0-.48-.13-1.34-1.32-1.34-.54,0-1.1.17-1.51.43l-.24-.7c.48-.31,1.17-.52,1.91-.52,1.78,0,2.21,1.21,2.21,2.37v2.17c0,.5.02,1,.1,1.39h-.96Zm-.16-2.96c-1.15-.02-2.46.18-2.46,1.31,0,.68.46,1.01,1,1.01.76,0,1.24-.48,1.4-.97.04-.11.06-.23.06-.34v-1.01Z"/>
      <path class="cls-4" d="m10.37,96.34c.02-.4.05-.98.05-1.5v-7.02h1.04v3.65h.02c.37-.65,1.04-1.07,1.98-1.07,1.44,0,2.46,1.2,2.45,2.96,0,2.08-1.31,3.11-2.6,3.11-.84,0-1.51-.32-1.94-1.09h-.04l-.05.96h-.91Zm1.09-2.33c0,.13.02.26.05.38.2.73.82,1.24,1.58,1.24,1.1,0,1.76-.9,1.76-2.23,0-1.16-.6-2.16-1.73-2.16-.72,0-1.39.49-1.61,1.3-.02.12-.06.26-.06.43v1.04Z"/>
    </g>
    <g>
      <path class="cls-4" d="m845.1,92.53h-22.5c-.28,0-.5-.22-.5-.5s.22-.5.5-.5h22.5c2.24,0,2.5-.26,2.5-2.5v-3c0-2.24-.26-2.5-2.5-2.5h-6.5c-.28,0-.5-.22-.5-.5s.22-.5.5-.5h6.5c2.78,0,3.5.72,3.5,3.5v3c0,2.78-.72,3.5-3.5,3.5Z"/>
      <path class="cls-4" d="m822.6,92.53c-.17,0-.34-.09-.43-.25-.14-.24-.06-.54.18-.68l6.94-4.01c.24-.14.55-.06.68.18.14.24.06.54-.18.68l-6.94,4.01c-.08.05-.17.07-.25.07Z"/>
      <path class="cls-4" d="m829.54,96.53c-.08,0-.17-.02-.25-.07l-6.94-4.01c-.24-.14-.32-.44-.18-.68.14-.24.44-.32.68-.18l6.94,4.01c.24.14.32.44.18.68-.09.16-.26.25-.43.25Z"/>
    </g>
  </g>
  <g id="alt">
    <path class="cls-2" d="m348.23,211.62h3.15v-10.3h1.3v10.3h3.15l-3.8,3.8-3.8-3.8Z"/>
    <path class="cls-2" d="m112.73,197.82v18h-1.21v-18h1.21Z"/>
    <path class="cls-2" d="m112.73,198.82v18h-1.21v-18h1.21Z"/>
    <path class="cls-2" d="m228.25,204.85l3.85,3.94,3.85-3.94.79.79-3.87,3.94,3.87,3.94-.79.79-3.85-3.94-3.85,3.94-.79-.79,3.85-3.94-3.85-3.94.79-.79Z"/>
    <path class="cls-2" d="m536.76,208.97v1.08h-9.29v-1.08h9.29Z"/>
    <path class="cls-2" d="m592.71,206.3l-2.6,3.25,2.6,3.25-.86.65-3.47-3.9,3.47-3.9.86.65Zm3.47,0l-2.6,3.25,2.6,3.25-.86.65-3.47-3.9,3.47-3.9.86.65Z"/>
    <path class="cls-2" d="m648.82,205.65l3.47,3.9-3.47,3.9-.86-.65,2.6-3.25-2.6-3.25.86-.65Zm3.47,0l3.47,3.9-3.47,3.9-.86-.65,2.6-3.25-2.6-3.25.86-.65Z"/>
    <path class="cls-2" d="m287.2,202.98c1.34-1.33,2.95-2,4.83-2s3.5.67,4.83,2,2,2.94,2,4.82-.67,3.52-2,4.85-2.97,2-4.9,2-3.42-.67-4.75-2.02-2-2.95-2-4.81.67-3.5,2-4.83Zm-1.03,4.83c0,1.58.57,2.95,1.71,4.12,1.14,1.15,2.49,1.73,4.06,1.73,1.91,0,3.43-.7,4.55-2.1.92-1.14,1.38-2.39,1.38-3.76,0-1.61-.57-2.99-1.71-4.13s-2.52-1.71-4.14-1.71-2.99.57-4.13,1.71-1.72,2.53-1.72,4.14Zm6.12-3.85c.54,0,1.21.08,2,.23l.23.04v1.08c-.81-.33-1.52-.49-2.14-.49-.43,0-.8.08-1.12.25s-.59.38-.81.66-.38.59-.48.96-.16.74-.16,1.14c0,.45.06.85.19,1.21.13.36.31.67.54.92s.52.45.86.58.72.2,1.14.2c.66,0,1.32-.18,1.99-.54v1.09c-.82.29-1.57.43-2.24.43-.56,0-1.08-.1-1.54-.29s-.86-.46-1.2-.8c-.33-.34-.59-.75-.77-1.22-.18-.47-.27-.99-.27-1.54s.09-1.11.26-1.59c.17-.48.42-.89.75-1.23.33-.34.73-.61,1.2-.8s1-.28,1.58-.28Z"/>
    <path class="cls-2" d="m313.51,154.38v-.9c1.21-.61,2.05-1.8,2.05-3.15,0-.43-.02-.79-.09-1.26h-1.85v-1.13h1.67c-.09-.54-.2-1.24-.2-1.94,0-2.12,1.46-3.51,3.46-3.51.94,0,1.58.22,1.96.45l-.36,1.19c-.32-.18-.85-.36-1.6-.36-1.4,0-1.98.97-1.98,2.25,0,.77.11,1.35.22,1.93h2.59v1.13h-2.45c.05.68.09,1.37-.07,2.02-.2.77-.63,1.42-1.24,1.94v.04h5.37v1.31h-7.47Z"/>
    <path class="cls-2" d="m194.06,145.67v2.97c.34-.07.85-.11,1.42-.11,1.87,0,3.76.77,3.76,2.92,0,.92-.34,1.55-.9,2.02-.95.81-2.36,1.01-3.51,1.01-.88,0-1.69-.05-2.34-.13v-8.68h1.57Zm0,7.62c.31.04.65.07,1.1.07,1.21,0,2.52-.5,2.52-1.85s-1.26-1.84-2.45-1.84c-.45,0-.85.04-1.17.09v3.53Zm7.85-7.62v8.71h-1.57v-8.71h1.57Z"/>
    <path class="cls-2" d="m432.97,147.4v-1.19h4.25c.3-.31.54-.66.71-1.04.17-.38.26-.76.26-1.13,0-.42-.14-.73-.42-.92-.28-.19-.77-.29-1.45-.29-.48,0-.89.05-1.21.16-.33.11-.63.23-.91.36l-.45-1.21c.17-.08.34-.16.52-.22.18-.07.38-.13.6-.18.22-.05.47-.1.75-.13.28-.03.6-.04.97-.04,1.02,0,1.79.19,2.31.56s.78.94.78,1.69c0,.46-.09.89-.27,1.3-.18.41-.4.78-.67,1.09h1.6v1.19h-7.38Zm7.38,1.28v1.19h-4.14c-.13.13-.26.28-.39.45s-.24.35-.34.54c-.1.19-.19.39-.25.58-.07.2-.1.38-.1.56,0,.43.17.76.5.99s.9.35,1.69.35c.56,0,1.03-.06,1.4-.17.37-.11.7-.23.97-.37l.43,1.15c-.28.17-.65.32-1.12.45-.47.13-1.12.2-1.95.2-1.15,0-2.01-.21-2.57-.64s-.85-1.03-.85-1.81c0-.22.04-.44.11-.68.07-.23.16-.45.27-.66.11-.2.22-.39.33-.56.11-.17.21-.3.28-.4h-1.66v-1.19h7.38Z"/>
    <path class="cls-2" d="m735.63,149.42h4.39c-.14-1.49-1.06-2.72-3.01-2.72-.92,0-1.62.27-2.09.49l-.34-1.03c.76-.43,1.76-.68,2.68-.68,1.26,0,2.39.43,3.17,1.24.74.77,1.19,1.93,1.19,3.35,0,2.54-1.67,4.52-4.63,4.52-.94,0-1.84-.23-2.54-.59l.31-1.13c.42.18,1.15.47,2.18.47,1.75,0,2.92-1.1,3.06-2.83h-4.38v-1.08Z"/>
    <path class="cls-2" d="m796.16,150.32c.04,2.14,1.4,3.02,2.99,3.02,1.13,0,1.82-.2,2.41-.45l.27,1.13c-.56.25-1.51.54-2.9.54-2.68,0-4.29-1.77-4.29-4.39s1.55-4.7,4.09-4.7c2.85,0,3.6,2.5,3.6,4.1,0,.32-.04.58-.05.74h-6.12Zm4.64-1.13c.02-1.01-.41-2.57-2.2-2.57-1.6,0-2.3,1.48-2.43,2.57h4.63Zm-4.59-5.98c0-.5.42-.92.92-.92s.88.4.88.92c0,.49-.36.92-.88.92s-.92-.43-.92-.92Zm3.35,0c0-.5.4-.92.9-.92s.88.4.88.92c0,.49-.36.92-.88.92s-.9-.43-.9-.92Z"/>
    <path class="cls-2" d="m259.55,144.39c0,1.46-1.17,2.41-2.41,2.41-1.4,0-2.36-1.06-2.36-2.32-.02-1.39,1.06-2.43,2.4-2.43,1.48,0,2.38,1.12,2.38,2.34Zm-3.8.09c0,.83.61,1.48,1.4,1.48s1.42-.67,1.42-1.55c0-.67-.4-1.51-1.42-1.51-.94,0-1.4.81-1.4,1.58Z"/>
    <path class="cls-2" d="m297.27,84.04c1.34-1.33,2.95-2,4.83-2s3.5.67,4.83,2,2,2.94,2,4.82-.67,3.52-2,4.85-2.97,2-4.9,2-3.42-.67-4.75-2.02-2-2.95-2-4.81.67-3.5,2-4.83Zm-1.03,4.83c0,1.61.57,2.98,1.71,4.12,1.14,1.15,2.5,1.73,4.07,1.73,1.91,0,3.43-.7,4.55-2.1.92-1.14,1.38-2.39,1.38-3.76s-.46-2.61-1.38-3.74c-1.12-1.4-2.62-2.1-4.47-2.1s-3.35.7-4.47,2.1c-.92,1.14-1.38,2.39-1.38,3.75Zm3.6,3.72v-7.38h2.33c1.49,0,2.23.6,2.23,1.81,0,.89-.43,1.6-1.29,2.14l2.22,3.44h-1.38l-2-3.08h-.93v3.08h-1.19Zm1.11-6.62v2.62h.34c1.3,0,1.95-.49,1.95-1.46,0-.77-.54-1.16-1.63-1.16h-.66Z"/>
    <path class="cls-2" d="m361.29,82.24v.81h-1.57v4.09h-.97v-4.09h-1.57v-.81h4.11Zm5.29,4.9l-.18-2.88c-.02-.38-.02-.85-.04-1.37h-.05c-.13.43-.27,1.01-.41,1.46l-.88,2.72h-1.01l-.88-2.79c-.09-.38-.23-.95-.34-1.39h-.05c0,.45-.02.92-.04,1.37l-.18,2.88h-.94l.36-4.9h1.46l.85,2.4c.11.38.2.74.32,1.24h.02c.13-.45.23-.86.34-1.22l.85-2.41h1.4l.38,4.9h-.97Z"/>
    <path class="cls-2" d="m484.06,85.66l.21-1.96h1.13l-.11,3.22h-3.8v7.45h-1.57v-8.71h4.12Z"/>
    <path class="cls-2" d="m781.39,85.66v2.94c.41-.05.95-.07,1.49-.07,1.8,0,3.87.68,3.87,2.93,0,.92-.36,1.55-.92,2.02-.96.81-2.41.99-3.69.99-.86,0-1.67-.05-2.34-.13v-7.44h-2.58v-1.24h4.16Zm-.02,7.6c.32.05.67.09,1.19.09,1.31,0,2.61-.45,2.61-1.84,0-1.49-1.42-1.85-2.68-1.85-.4,0-.74.04-1.12.09v3.51Z"/>
    <path class="cls-2" d="m600.22,89.68c-.02-1.06.85-1.89,1.89-1.89s1.89.83,1.89,1.87-.83,1.89-1.89,1.89-1.89-.81-1.89-1.87Z"/>
    <path class="cls-2" d="m664.66,83.7c-.47-.29-1.19-.58-2.16-.58-1.06,0-1.87.52-1.87,1.33,0,.94.9,1.28,2.25,1.73,1.66.54,2.93,1.22,2.93,2.84,0,.94-.45,1.62-1.17,2.18.31.25.69.85.69,1.58,0,1.89-1.75,2.7-3.42,2.7-1.1,0-2.14-.25-2.83-.76l.43-1.03c.43.31,1.31.74,2.38.74,1.15,0,2.02-.52,2.02-1.48,0-.85-.52-1.3-2.2-1.87-1.86-.63-3.13-1.3-3.13-2.85,0-.68.36-1.49,1.31-2.11-.36-.29-.65-.9-.67-1.51,0-1.58,1.48-2.56,3.33-2.56,1.01,0,1.87.25,2.48.59l-.38,1.03Zm-2.9,6.07c.92.32,1.64.59,2.05.86.45-.32.69-.83.69-1.39,0-.68-.43-1.26-1.6-1.67-.72-.27-1.64-.58-2.21-.92-.58.41-.83.86-.83,1.4,0,.65.49,1.19,1.91,1.71Z"/>
    <path class="cls-2" d="m239.75,84.66l1.91,5.15c.2.58.41,1.26.56,1.78h.04c.16-.52.34-1.19.56-1.82l1.73-5.11h1.67l-2.38,6.21c-1.13,2.99-1.91,4.52-2.99,5.46-.77.68-1.55.95-1.94,1.03l-.4-1.33c.4-.13.92-.38,1.39-.77.43-.34.97-.95,1.33-1.76.07-.16.13-.29.13-.38s-.04-.22-.11-.41l-3.22-8.03h1.73Zm1.17-3.55c.04.77.41,1.37,1.15,1.37s1.13-.58,1.22-1.37h1.13c-.09,1.48-1.01,2.23-2.39,2.23-1.58,0-2.2-.99-2.27-2.23h1.15Z"/>
    <path class="cls-2" d="m209.29,34.4l.47-3.53h-1.48v-1.06h1.64l.34-2.61h-1.55v-1.06h1.71l.47-3.44h1.04l-.45,3.44h1.87l.47-3.44h1.06l-.45,3.44h1.48v1.06h-1.64l-.32,2.61h1.55v1.06h-1.71l-.47,3.53h-1.08l.47-3.53h-1.87l-.47,3.53h-1.08Zm3.58-4.59l.34-2.61h-1.87l-.34,2.61h1.87Z"/>
    <path class="cls-2" d="m34.83,26.3l-.43-4.77h2.17l-.44,4.77h-1.3Z"/>
    <path class="cls-2" d="m93.23,23.73c0,.63-.41,1.12-1.06,1.12s-1.06-.49-1.06-1.12.45-1.12,1.08-1.12,1.04.47,1.04,1.12Zm-1.93,11.24l.25-8.59h1.22l.27,8.59h-1.75Z"/>
    <path class="cls-2" d="m271.51,35.95v-1.82c-1.04-.02-2.12-.34-2.75-.79l.43-1.21c.65.43,1.58.77,2.59.77,1.28,0,2.14-.74,2.14-1.76s-.7-1.6-2.03-2.14c-1.84-.72-2.97-1.55-2.97-3.12s1.06-2.63,2.72-2.9v-1.82h1.12v1.75c1.08.04,1.82.32,2.34.63l-.45,1.19c-.38-.22-1.12-.61-2.27-.61-1.39,0-1.91.83-1.91,1.55,0,.94.67,1.4,2.23,2.05,1.85.76,2.79,1.69,2.79,3.3,0,1.42-.99,2.75-2.84,3.06v1.87h-1.13Z"/>
    <path class="cls-2" d="m388.39,24.1l3.8-3.8,3.8,3.8h-3.15v10.3h-1.3v-10.3h-3.15Z"/>
    <path class="cls-2" d="m455.7,34.4c-.34-.34-.67-.68-1.13-1.19-1.04.97-2.21,1.39-3.55,1.39-2.36,0-3.73-1.58-3.73-3.4,0-1.66.99-2.79,2.38-3.55v-.05c-.63-.79-1.01-1.67-1.01-2.54,0-1.48,1.06-2.99,3.08-2.99,1.51,0,2.68,1.01,2.68,2.57,0,1.28-.74,2.29-2.67,3.24v.05c1.03,1.19,2.18,2.52,2.95,3.38.56-.85.94-2.02,1.17-3.55h1.44c-.32,1.91-.85,3.42-1.75,4.48.65.68,1.28,1.37,2,2.14h-1.87Zm-1.91-2.09c-.72-.79-2.07-2.27-3.42-3.82-.65.41-1.57,1.19-1.57,2.47,0,1.39,1.03,2.45,2.48,2.45,1.04,0,1.93-.47,2.5-1.1Zm-3.69-7.4c0,.86.4,1.53.92,2.18,1.22-.7,2.02-1.35,2.02-2.38,0-.74-.41-1.57-1.4-1.57s-1.53.83-1.53,1.76Z"/>
    <path class="cls-2" d="m635.46,27.25v-3.15l3.8,3.8-3.8,3.8v-3.15h-10.3v-1.3h10.3Z"/>
    <path class="cls-2" d="m698.64,29.29v1.08h-16.92v-1.08h16.92Z"/>
    <path class="cls-2" d="m751.17,31.88l-1.37,2.2h-1.17l1.42-2.2h-2.59v-1.08h3.28l1.6-2.48h-4.88v-1.08h5.56l1.37-2.2h1.17l-1.42,2.2h2.61v1.08h-3.3l-1.58,2.48h4.88v1.08h-5.58Z"/>
    <path class="cls-2" d="m512.1,28.39c-.92.92-1.87,1.93-3.33,1.93s-2.59-1.12-2.59-2.66c0-1.42,1.15-2.66,2.74-2.66,1.33,0,2.32,1.06,3.19,1.93.92-.92,1.87-1.93,3.33-1.93,1.53,0,2.59,1.12,2.59,2.66,0,1.42-1.15,2.66-2.74,2.66-1.33,0-2.32-1.06-3.19-1.93Zm-.72-.74c-.7-.65-1.44-1.58-2.49-1.58-.9,0-1.58.74-1.58,1.58,0,.92.65,1.58,1.53,1.58,1.03,0,1.85-.88,2.54-1.58Zm5.51,0c0-.92-.65-1.58-1.53-1.58-1.03,0-1.86.88-2.54,1.58.7.65,1.44,1.58,2.48,1.58.9,0,1.58-.74,1.58-1.58Z"/>
    <path class="cls-2" d="m565.02,27.9l3.8-3.8v3.15h10.3v1.3h-10.3v3.15l-3.8-3.8Z"/>
    <path class="cls-2" d="m154.89,33.55c-.99.52-2,.72-3.2.72-2.95,0-5.46-2.16-5.46-5.62,0-3.71,2.57-6.91,6.57-6.91,3.13,0,5.24,2.2,5.24,5.2,0,2.7-1.51,4.29-3.21,4.29-.72,0-1.39-.49-1.33-1.58h-.07c-.63,1.06-1.46,1.58-2.54,1.58s-1.94-.85-1.94-2.27c0-2.23,1.76-4.27,4.27-4.27.77,0,1.46.16,1.93.38l-.61,3.26c-.27,1.37-.05,2,.54,2.02.92.02,1.94-1.21,1.94-3.29,0-2.61-1.57-4.48-4.36-4.48-2.94,0-5.4,2.32-5.4,5.98,0,3.01,1.96,4.86,4.63,4.86,1.03,0,1.98-.22,2.72-.63l.29.77Zm-.99-7.78c-.18-.05-.49-.13-.9-.13-1.58,0-2.86,1.49-2.86,3.24,0,.79.4,1.37,1.19,1.37,1.04,0,2-1.33,2.2-2.45l.38-2.03Z"/>
  </g>
  <g id="alt_shift" data-name="alt+shift">
    <path class="cls-1" d="m231.05,187.21c-.01-.59.47-1.05,1.05-1.05s1.05.46,1.05,1.04-.46,1.05-1.05,1.05-1.05-.45-1.05-1.04Z"/>
    <path class="cls-3" d="m591.46,190.87v1.46c0,1.77-.58,2.8-1.73,3.09v-.65c.41-.22.62-.8.62-1.75v-.2h-.84v-1.95h1.95Zm1.3,0h1.95v1.46c0,1.77-.58,2.8-1.73,3.09v-.65c.41-.22.62-.8.62-1.75v-.2h-.84v-1.95Z"/>
    <path class="cls-3" d="m651.15,178.94v.65c-.41.22-.62.8-.62,1.75v.2h.84v1.95h-1.95v-1.46c0-1.78.58-2.81,1.73-3.09Zm1.52,3.09c0-1.78.58-2.81,1.73-3.09v.65c-.41.22-.62.8-.62,1.75v.2h.84v1.95h-1.95v-1.46Z"/>
    <path class="cls-3" d="m713.39,185.69l.05.47c.11.97-.23,2-1.13,3.08-.81.97-1.24,1.64-1.24,2.45,0,.92.56,1.53,1.71,1.53.63,0,1.35-.2,1.82-.56l.43,1.15c-.61.41-1.64.72-2.59.72-2.05,0-3.01-1.28-3.01-2.65,0-1.22.68-2.09,1.57-3.1.77-.96,1.06-1.71,1.01-2.63l-.02-.47h1.4Zm.38-2.56c0,.63-.41,1.13-1.06,1.13s-1.06-.5-1.06-1.13.43-1.12,1.06-1.12,1.06.47,1.06,1.12Z"/>
    <path class="cls-3" d="m292.23,193.07v-1.82c-1.15-.14-1.96-.56-2.61-1.26-.61-.68-1.01-1.73-1.01-3.04,0-2.32,1.42-4.09,3.62-4.45v-1.8h1.12v1.77c.81,0,1.55.23,1.96.45l-.36,1.21c-.36-.22-.97-.45-1.87-.45-1.78,0-2.88,1.44-2.88,3.2,0,2,1.22,3.17,2.81,3.17.99,0,1.62-.25,2.05-.45l.29,1.13c-.36.2-1.12.49-2,.52v1.82h-1.12Z"/>
    <path class="cls-3" d="m191.19,120.28h1.8v4.81c.07-.01.17-.03.29-.04.12-.02.25-.03.41-.04.15-.01.31-.02.47-.04.16-.01.32-.02.48-.02.62,0,1.23.06,1.82.18s1.11.33,1.57.62c.46.29.82.69,1.09,1.18.27.49.4,1.11.4,1.85s-.13,1.35-.39,1.89c-.26.54-.61.98-1.07,1.33s-1,.61-1.64.78c-.64.17-1.34.26-2.11.26-.18,0-.4,0-.65,0s-.52-.02-.8-.04c-.28-.02-.57-.05-.85-.09s-.56-.08-.81-.14v-12.47Zm3.26,11.18c.44,0,.86-.05,1.24-.16.38-.11.72-.27,1-.48.28-.21.5-.48.67-.8s.24-.69.24-1.12c0-.47-.09-.86-.27-1.17-.18-.31-.42-.55-.71-.73s-.64-.3-1.03-.37c-.39-.07-.8-.11-1.23-.11-.23,0-.48.02-.76.05-.28.04-.48.07-.61.11v4.67c.17.05.38.08.62.09.25.01.52.02.84.02Zm6.97-11.18h1.8v12.6h-1.8v-12.6Z"/>
    <path class="cls-3" d="m735.23,126.04h5.65c-.2-2.34-1.66-4.2-4.16-4.2-.97,0-1.82.27-2.59.61l-.38-1.21c.86-.38,1.91-.7,3.06-.7,3.82,0,5.76,2.75,5.76,6.28,0,3.98-2.63,6.25-5.85,6.25-1.21,0-2.3-.23-3.17-.63l.34-1.24c.7.32,1.71.56,2.61.56,2.68,0,4.29-1.94,4.39-4.47h-5.67v-1.26Z"/>
    <path class="cls-3" d="m801.88,127.2h-4.72v4.38h5.26v1.31h-6.82v-12.14h6.55v1.31h-4.99v3.83h4.72v1.3Zm-5.62-8.21c0-.49.4-.9.9-.9s.86.4.86.9-.34.92-.86.92-.9-.41-.9-.92Zm3.35,0c0-.49.38-.9.88-.9s.88.4.88.9-.34.92-.88.92-.88-.41-.88-.92Z"/>
    <path class="cls-3" d="m261.37,126.46c0,3.22-2.23,4.63-4.34,4.63-2.36,0-4.18-1.73-4.18-4.48,0-2.92,1.91-4.63,4.32-4.63s4.2,1.82,4.2,4.48Zm-6.91.09c0,1.91,1.1,3.35,2.65,3.35s2.65-1.42,2.65-3.39c0-1.48-.74-3.35-2.61-3.35s-2.68,1.73-2.68,3.38Z"/>
    <path class="cls-3" d="m484.79,60.74l.29-2.2h1.15l-.2,3.51h-4.93v10.82h-1.57v-12.14h5.26Z"/>
    <path class="cls-3" d="m781.15,60.74v4.54c.36-.05.99-.09,1.46-.09,2.34,0,4.55,1.13,4.55,3.78,0,1.13-.36,1.98-.94,2.59-1.01,1.06-2.61,1.42-4.23,1.42-1.06,0-1.89-.07-2.41-.14v-10.8h-3.12v-1.3h4.68Zm0,10.93c.34.07.74.09,1.24.09,1.75,0,3.12-.88,3.12-2.72s-1.51-2.61-3.1-2.61c-.41,0-.88.04-1.26.09v5.15Z"/>
    <path class="cls-3" d="m657.36,61.54c1.34-1.33,2.95-2,4.82-2s3.5.67,4.83,2,2,2.94,2,4.82-.67,3.52-2,4.85-2.97,2-4.9,2-3.43-.67-4.76-2.02-1.99-2.95-1.99-4.81.67-3.5,2-4.83Zm.69,8.96c1.14,1.15,2.49,1.73,4.06,1.73,1.91,0,3.43-.7,4.55-2.1.92-1.14,1.38-2.39,1.38-3.76,0-1.61-.57-2.99-1.71-4.13s-2.52-1.71-4.14-1.71-2.99.57-4.13,1.71-1.72,2.53-1.72,4.14.57,2.97,1.71,4.12Zm2.23-.15v-7.81h2.28c.47,0,.88.04,1.21.11s.61.2.82.36.37.38.46.64.15.57.15.94c0,.42-.07.8-.22,1.12s-.35.61-.62.83-.61.4-1,.52-.83.18-1.33.18h-.54v3.09h-1.22Zm1.22-3.99h.41c1.33,0,1.99-.55,1.99-1.66,0-.84-.58-1.27-1.74-1.27h-.67v2.93Z"/>
    <path class="cls-3" d="m599.97,69.15v-4.26h4.26v4.26h-4.26Z"/>
    <path class="cls-3" d="m239.23,60.74l2.41,5.17c.31.72.59,1.42.88,2.14h.04c.22-.63.45-1.33.76-2.2l1.89-5.11h1.66l-2.54,6.23c-.67,1.62-1.42,3.48-2.27,4.61-.79.99-1.67,1.49-2.75,1.49-.4,0-.68-.04-.88-.11l.16-1.28c.13.04.31.05.58.05,1.26-.02,2-1.22,2.38-2.09.13-.27.09-.45-.05-.74l-4.03-8.17h1.78Zm1.78-2.57c.07.56.25,1.12,1.1,1.12s1.03-.52,1.1-1.12h1.21c-.09,1.21-.81,1.94-2.34,1.94s-2.18-.76-2.27-1.94h1.21Z"/>
    <path class="cls-3" d="m91.9,7.92V2.02h-.04l-1.3.61-.2-.94,1.69-.79h1.1v7.02h-1.26Z"/>
    <path class="cls-3" d="m276.52,11.34c-.56.38-1.49.76-2.68.76-1.46,0-2.75-.56-3.66-1.6-.68-.76-1.13-1.8-1.3-3.1h-1.12v-.88h1.03v-.27c0-.29.02-.56.04-.81h-1.06v-.9h1.19c.22-1.26.76-2.3,1.48-3.04.92-.95,2.09-1.49,3.56-1.49,1.06,0,1.89.31,2.4.58l-.36,1.19c-.45-.27-1.21-.5-2.02-.5-.97,0-1.76.34-2.38.99-.54.52-.9,1.33-1.08,2.29h5.02v.9h-5.19c-.02.23-.04.5-.04.76v.32h5.22v.88h-5.1c.14,1.04.5,1.82.99,2.36.67.7,1.57,1.04,2.54,1.04s1.78-.36,2.2-.59l.31,1.13Z"/>
    <path class="cls-3" d="m36.27,3.62h-1.3l-2.82-2.82h2l2.12,2.82Z"/>
    <path class="cls-3" d="m209.84,1.39c.41-.27,1.19-.58,2.07-.58,1.55,0,2.2.83,2.2,1.71,0,.72-.52,1.31-1.39,1.62v.04c.99.13,1.67.83,1.67,1.73,0,1.12-1.01,2.11-2.84,2.11-.86,0-1.66-.22-2.05-.49l.32-.9c.29.18.99.47,1.67.47,1.1,0,1.58-.65,1.57-1.21,0-.92-.95-1.28-1.91-1.28h-.49v-.83h.5c.67,0,1.62-.31,1.64-1.13,0-.45-.32-.9-1.13-.9-.65,0-1.24.29-1.53.49l-.31-.85Z"/>
    <path class="cls-3" d="m388.09,7.63v-1.08h9.29v1.08h-9.29Zm3.69-3.69c0-.59.4-1.01.97-1.01s.94.41.94,1.01c0,.56-.36.99-.95.99s-.95-.43-.95-.99Zm0,6.32c0-.59.4-1.01.97-1.01s.94.41.94,1.01c0,.56-.36.99-.95.99s-.95-.43-.95-.99Z"/>
    <path class="cls-3" d="m633.18.55v14.37h-3.29v-.99h2.07V1.54h-2.07v-.99h3.29Z"/>
    <path class="cls-3" d="m694.14,7.79v1.08h-7.92v-1.08h7.92Z"/>
    <path class="cls-3" d="m752.68,2.6v3.51h4.07v1.08h-4.07v3.6h-1.15v-3.6h-4.07v-1.08h4.07v-3.51h1.15Zm4.07,9.22v1.08h-9.29v-1.08h9.29Z"/>
    <path class="cls-3" d="m518,4.15c-.58.72-1.62,1.4-2.74,1.4-1.04,0-1.73-.41-2.3-.67-.54-.22-1.15-.61-2.05-.61-.83,0-1.64.56-2.12,1.06l-.63-.76c.58-.68,1.62-1.39,2.75-1.39,1.06,0,1.71.41,2.3.65.54.23,1.13.61,2.04.61.83,0,1.64-.58,2.09-1.04l.67.74Zm.07,3.55c-.58.74-1.64,1.42-2.75,1.42-1.03,0-1.69-.41-2.29-.65-.54-.22-1.15-.61-2.07-.61-.79,0-1.62.54-2.11,1.06l-.61-.77c.56-.68,1.62-1.37,2.74-1.37s1.71.4,2.3.65c.54.22,1.15.61,2.04.61s1.66-.54,2.11-1.06l.65.72Z"/>
    <path class="cls-3" d="m571.09,14.92V.57h3.29v.99h-2.07v12.37h2.07v.99h-3.29Z"/>
    <path class="cls-3" d="m151.95,7.26l1.13-1.04c1.49-1.37,2.27-2.21,2.27-3.13,0-.68-.43-1.24-1.37-1.24-.63,0-1.17.31-1.51.56l-.38-.83c.49-.4,1.3-.76,2.2-.76,1.69,0,2.4,1.08,2.4,2.03,0,1.37-1.03,2.36-2.4,3.55l-.56.5v.04h3.08v.99h-4.86v-.67Z"/>
    <rect class="cls-3" x="250.89" y="126.2" width="12.35" height="1" transform="translate(-14.29 218.91) rotate(-45)"/>
  </g>
</svg>